<svg width="112" height="27" viewBox="0 0 112 27" fill="none" xmlns="http://www.w3.org/2000/svg">
<path d="M5.67426 17.8109C5.67426 17.8109 9.07602 25.9501 9.89473 26.3808C10.7134 26.8116 34.7151 24.7123 34.7151 24.7123L34.0337 23.9483L34.0015 18.6808L34.8992 18.6409L25.7301 6.4751L5.01159 8.00002C5.01159 8.00002 3.90576 8.77139 3.75179 9.44634C3.59783 10.1213 3.63736 11.1306 3.63736 11.1306L5.67426 17.8109Z" fill="#363636"/>
<path d="M10.6965 26.4834C10.2398 26.4834 9.95161 26.4645 9.87151 26.4226C9.04551 25.9887 5.76546 18.1597 5.6271 17.8285V17.8233L3.58501 11.1398V11.1325C3.58501 11.122 3.55276 10.1043 3.70048 9.43462C3.8482 8.76491 4.93531 7.9883 4.98212 7.95581L4.99357 7.94848H5.00709L25.7516 6.42041L25.7682 6.44347L34.9998 18.6879L34.0531 18.7309L34.0854 23.9282L34.823 24.7551L34.7189 24.7635C33.8336 24.8411 14.9565 26.4834 10.6965 26.4834ZM5.72385 17.7845C6.89835 20.5943 9.28478 25.9918 9.91936 26.3251C10.5539 26.6584 26.2832 25.3871 34.6066 24.6598L33.9824 23.9597V23.9397L33.9501 18.6219L34.798 18.5842L25.7058 6.52941L5.02998 8.05014C4.91242 8.13503 3.93663 8.85086 3.80243 9.45768C3.66303 10.0865 3.68592 11.0298 3.688 11.122L5.72385 17.7845Z" fill="#263238"/>
<path d="M33.9998 18.6802L10.458 20.5897C10.1022 20.8262 9.80262 21.1388 9.58055 21.5053C9.35847 21.8718 9.21939 22.2831 9.17322 22.71C9.00053 24.1909 9.59454 25.6948 10.0367 25.9107C10.3587 26.0496 10.703 26.1287 11.053 26.1444L34.0321 23.9435L33.9998 18.6802Z" fill="#E0E0E0"/>
<path d="M11.059 26.1984C10.7007 26.1832 10.3482 26.1022 10.0187 25.9594C9.54331 25.7268 8.95451 24.1778 9.12616 22.7105C9.17437 22.2761 9.3163 21.8575 9.54201 21.4842C9.76772 21.1109 10.0717 20.7918 10.4328 20.5494L10.4546 20.542L34.0526 18.623L34.0859 23.9943L34.0381 23.9996L11.059 26.1984ZM10.4702 20.6437C10.1256 20.8784 9.83555 21.1855 9.62004 21.5439C9.40454 21.9023 9.26869 22.3035 9.22186 22.7199C9.04813 24.2165 9.66711 25.6765 10.0541 25.8641C10.3697 25.9997 10.7069 26.0771 11.0497 26.0926L33.9746 23.9L33.9424 18.7362L10.4702 20.6437Z" fill="#263238"/>
<path d="M10.0437 0.296372L0.546852 13.5071C0.546852 13.5071 0.0267062 14.0207 0.0537538 15.2794C0.0808015 16.5381 0.14218 18.5913 0.513565 18.738C0.88495 18.8847 28.3654 20.9808 28.3654 20.9808L34.7111 6.21685L34.216 6.00724L34.3866 2.36733L34.8027 1.18932L10.7417 0.0532227L10.0437 0.296372Z" fill="#E9B44C"/>
<path d="M28.3978 21.0335H28.3603C27.2379 20.9486 0.86953 18.93 0.495024 18.7854C0.194379 18.669 0.0466572 17.621 0.000884312 15.2817C-0.0240827 14.0146 0.48774 13.4927 0.509586 13.4707L10.0106 0.252582L10.7326 0H10.743L34.8705 1.14029L34.4377 2.37804L34.2671 5.96869L34.7769 6.18878L34.7561 6.23804L28.3978 21.0335ZM10.0751 0.340619L0.587608 13.5378C0.577205 13.5493 0.0809869 14.0618 0.104914 15.2786C0.120518 16.0866 0.169413 18.5464 0.531435 18.6869C0.888256 18.8032 18.8479 20.2003 28.3312 20.9287L34.6406 6.24432L34.16 6.03471L34.3368 2.3487L34.7259 1.23566L10.7482 0.105854L10.0751 0.340619Z" fill="#263238"/>
<path d="M1.4005 13.8837C1.4005 13.8837 0.541214 13.6154 0.296745 14.4476C0.0522755 15.2797 0.653565 18.295 0.653565 18.295C0.653565 18.295 1.16643 18.5109 1.40258 18.5182C1.63872 18.5256 28.083 20.2842 28.083 20.2842L34.2134 6.00339L34.3861 2.36768L28.521 15.1645L1.4005 13.8837Z" fill="white"/>
<path d="M28.1148 20.3383H28.0784C27.8142 20.3205 1.63101 18.5786 1.39902 18.5723C1.16704 18.5661 0.653134 18.3543 0.631287 18.346L0.606318 18.3344L0.601118 18.3072C0.576151 18.1835 0.000867978 15.2678 0.246377 14.4346C0.273569 14.3215 0.323517 14.2153 0.393126 14.1224C0.462735 14.0296 0.550523 13.9521 0.651053 13.8949C0.888019 13.7836 1.15673 13.7617 1.40839 13.833L28.4872 15.1127L34.4492 2.10107L34.2598 6.0229L28.1148 20.3383ZM0.696826 18.2569C0.800856 18.2998 1.20761 18.4592 1.40215 18.4665C1.63413 18.4728 26.5336 20.1298 28.0482 20.2304L34.161 5.99041L34.3202 2.63663L28.5528 15.2186H28.5174L1.3907 13.9347H1.38342C1.15673 13.8699 0.914581 13.8881 0.699947 13.986C0.611897 14.0372 0.535062 14.1059 0.474091 14.1879C0.413119 14.2698 0.369276 14.3634 0.345207 14.4629C0.120503 15.2301 0.63857 17.9529 0.696826 18.2569Z" fill="#263238"/>
<path d="M27.9145 15.1359L1.4005 13.8835C1.4005 13.8835 0.541214 13.6152 0.296745 14.4474C0.0522755 15.2795 0.653565 18.2948 0.653565 18.2948C0.653565 18.2948 1.16643 18.5107 1.40258 18.518C1.63872 18.5254 28.083 20.284 28.083 20.284L28.0466 15.2533L27.9145 15.1359Z" fill="#E0E0E0"/>
<path d="M28.1346 20.3399H28.0784C27.8142 20.3221 1.63101 18.5802 1.39902 18.5739C1.16704 18.5676 0.653134 18.3559 0.631287 18.3476L0.606318 18.336L0.601118 18.3088C0.576151 18.1851 0.000867993 15.2694 0.246377 14.4362C0.273569 14.3231 0.323517 14.2169 0.393126 14.124C0.462735 14.0312 0.550523 13.9537 0.651053 13.8965C0.888018 13.7852 1.15673 13.7633 1.40839 13.8346L27.9359 15.0923L28.0992 15.2327V15.2568L28.1346 20.3399ZM0.696826 18.2574C0.800856 18.3004 1.20761 18.4597 1.40215 18.467C1.63309 18.4733 26.3349 20.1167 28.0337 20.2288L27.9973 15.2757L27.8932 15.1887L1.3907 13.9352H1.38342C1.15673 13.8704 0.914581 13.8886 0.699947 13.9866C0.611897 14.0378 0.535062 14.1064 0.474091 14.1884C0.413119 14.2704 0.369276 14.3639 0.345207 14.4635C0.120503 15.2306 0.63857 17.9535 0.696826 18.2574Z" fill="#263238"/>
<path d="M45.74 21.4834V19.6434H49.62C50.4733 19.6434 51.18 19.4501 51.74 19.0634C52.3 18.6767 52.7133 18.1301 52.98 17.4234C53.26 16.7167 53.4 15.8834 53.4 14.9234C53.4 14.0967 53.3133 13.3834 53.14 12.7834C52.9667 12.1701 52.7 11.6701 52.34 11.2834C51.9933 10.8967 51.5467 10.6101 51 10.4234C50.4667 10.2234 49.84 10.1234 49.12 10.1234H45.74V8.2834H49.06C50.58 8.2834 51.8267 8.5434 52.8 9.0634C53.7733 9.5834 54.4933 10.3301 54.96 11.3034C55.4267 12.2634 55.66 13.4234 55.66 14.7834C55.66 15.7167 55.5533 16.5501 55.34 17.2834C55.1267 18.0034 54.8333 18.6301 54.46 19.1634C54.1 19.6834 53.6667 20.1167 53.16 20.4634C52.6667 20.8101 52.12 21.0701 51.52 21.2434C50.9333 21.4034 50.32 21.4834 49.68 21.4834H45.74ZM44.64 21.4834V8.2834H46.82V21.4834H44.64ZM62.8486 21.7434C61.8486 21.7434 60.9619 21.5301 60.1886 21.1034C59.4153 20.6767 58.8086 20.0567 58.3686 19.2434C57.9419 18.4301 57.7286 17.4301 57.7286 16.2434C57.7286 15.0301 57.9553 14.0234 58.4086 13.2234C58.8619 12.4234 59.4686 11.8234 60.2286 11.4234C61.0019 11.0234 61.8686 10.8234 62.8286 10.8234C63.8153 10.8234 64.6953 11.0301 65.4686 11.4434C66.2419 11.8567 66.8486 12.4701 67.2886 13.2834C67.7419 14.0967 67.9686 15.1101 67.9686 16.3234C67.9686 17.5234 67.7419 18.5301 67.2886 19.3434C66.8486 20.1434 66.2419 20.7434 65.4686 21.1434C64.6953 21.5434 63.8219 21.7434 62.8486 21.7434ZM62.9286 20.0234C63.5286 20.0234 64.0419 19.8834 64.4686 19.6034C64.8953 19.3234 65.2219 18.9101 65.4486 18.3634C65.6753 17.8167 65.7886 17.1634 65.7886 16.4034C65.7886 15.6167 65.6686 14.9434 65.4286 14.3834C65.1886 13.8101 64.8419 13.3701 64.3886 13.0634C63.9486 12.7567 63.4086 12.6034 62.7686 12.6034C62.1953 12.6034 61.6886 12.7434 61.2486 13.0234C60.8219 13.2901 60.4953 13.6967 60.2686 14.2434C60.0419 14.7767 59.9286 15.4301 59.9286 16.2034C59.9286 17.4167 60.1953 18.3567 60.7286 19.0234C61.2619 19.6901 61.9953 20.0234 62.9286 20.0234ZM74.3389 25.0434C73.2189 25.0434 72.2989 24.9567 71.5789 24.7834C70.8722 24.6101 70.3522 24.3501 70.0189 24.0034C69.6856 23.6567 69.5189 23.2301 69.5189 22.7234C69.5189 22.1101 69.7589 21.6101 70.2389 21.2234C70.7189 20.8234 71.4456 20.5701 72.4189 20.4634V20.0634C71.6989 20.0767 71.1522 20.0034 70.7789 19.8434C70.4189 19.6701 70.2389 19.4034 70.2389 19.0434C70.2389 18.6701 70.4189 18.3567 70.7789 18.1034C71.1522 17.8367 71.7522 17.6034 72.5789 17.4034V17.0234C71.7656 16.9967 71.1389 16.7434 70.6989 16.2634C70.2589 15.7834 70.0389 15.1701 70.0389 14.4234C70.0389 13.7434 70.2189 13.1501 70.5789 12.6434C70.9522 12.1234 71.4922 11.7234 72.1989 11.4434C72.9189 11.1501 73.7856 11.0034 74.7989 11.0034H79.8189V12.7634L76.5989 12.2834V12.6834C77.3989 12.8301 77.9989 13.0834 78.3989 13.4434C78.7989 13.8034 78.9989 14.2901 78.9989 14.9034C78.9989 15.4501 78.8256 15.9367 78.4789 16.3634C78.1456 16.7901 77.6522 17.1234 76.9989 17.3634C76.3456 17.5901 75.5456 17.7034 74.5989 17.7034C74.4256 17.7034 74.2389 17.6967 74.0389 17.6834C73.8389 17.6701 73.5456 17.6367 73.1589 17.5834C72.8389 17.7834 72.5789 17.9701 72.3789 18.1434C72.1922 18.3167 72.0989 18.4701 72.0989 18.6034C72.0989 18.7367 72.1789 18.8434 72.3389 18.9234C72.5122 19.0034 72.7256 19.0567 72.9789 19.0834C73.2322 19.1101 73.4722 19.1234 73.6989 19.1234H76.2589C76.5256 19.1234 76.8656 19.1501 77.2789 19.2034C77.6922 19.2434 78.1056 19.3501 78.5189 19.5234C78.9322 19.6967 79.2789 19.9701 79.5589 20.3434C79.8389 20.7034 79.9789 21.2101 79.9789 21.8634C79.9789 22.6101 79.7656 23.2167 79.3389 23.6834C78.9122 24.1501 78.2789 24.4901 77.4389 24.7034C76.5989 24.9301 75.5656 25.0434 74.3389 25.0434ZM74.4789 23.2634C75.3322 23.2634 76.0189 23.2101 76.5389 23.1034C77.0589 23.0101 77.4389 22.8501 77.6789 22.6234C77.9189 22.3967 78.0389 22.1101 78.0389 21.7634C78.0389 21.4434 77.9589 21.1967 77.7989 21.0234C77.6389 20.8367 77.4389 20.7101 77.1989 20.6434C76.9722 20.5634 76.7389 20.5167 76.4989 20.5034C76.2589 20.4901 76.0522 20.4834 75.8789 20.4834H73.4989C72.7922 20.6034 72.2989 20.8101 72.0189 21.1034C71.7389 21.3834 71.5989 21.6967 71.5989 22.0434C71.5989 22.3767 71.7189 22.6301 71.9589 22.8034C72.1989 22.9901 72.5322 23.1101 72.9589 23.1634C73.3989 23.2301 73.9056 23.2634 74.4789 23.2634ZM74.6189 16.4234C75.3922 16.4234 75.9722 16.2567 76.3589 15.9234C76.7589 15.5767 76.9589 15.1234 76.9589 14.5634C76.9589 13.9634 76.7589 13.4767 76.3589 13.1034C75.9589 12.7167 75.3656 12.5234 74.5789 12.5234C73.8056 12.5234 73.2122 12.7101 72.7989 13.0834C72.3989 13.4567 72.1989 13.9301 72.1989 14.5034C72.1989 14.8901 72.2922 15.2301 72.4789 15.5234C72.6656 15.8034 72.9322 16.0234 73.2789 16.1834C73.6389 16.3434 74.0856 16.4234 74.6189 16.4234ZM86.5409 21.7434C85.7143 21.7434 84.9809 21.6234 84.3409 21.3834C83.7009 21.1301 83.1609 20.7767 82.7209 20.3234C82.2809 19.8567 81.9476 19.3034 81.7209 18.6634C81.4943 18.0101 81.3809 17.2767 81.3809 16.4634C81.3809 15.6501 81.4943 14.9034 81.7209 14.2234C81.9476 13.5301 82.2676 12.9301 82.6809 12.4234C83.1076 11.9167 83.6276 11.5234 84.2409 11.2434C84.8676 10.9634 85.5743 10.8234 86.3609 10.8234C87.0943 10.8234 87.7476 10.9434 88.3209 11.1834C88.9076 11.4234 89.4009 11.7901 89.8009 12.2834C90.2009 12.7634 90.5009 13.3701 90.7009 14.1034C90.9009 14.8234 90.9743 15.6701 90.9209 16.6434L82.7809 16.7034V15.3434L89.6409 15.2834L88.8809 16.1234C88.9609 15.3234 88.8943 14.6634 88.6809 14.1434C88.4676 13.6234 88.1609 13.2367 87.7609 12.9834C87.3609 12.7301 86.9009 12.6034 86.3809 12.6034C85.7943 12.6034 85.2809 12.7567 84.8409 13.0634C84.4143 13.3567 84.0809 13.7901 83.8409 14.3634C83.6009 14.9367 83.4809 15.6234 83.4809 16.4234C83.4809 17.6234 83.7476 18.5301 84.2809 19.1434C84.8143 19.7434 85.5743 20.0434 86.5609 20.0434C86.9743 20.0434 87.3276 19.9967 87.6209 19.9034C87.9143 19.7967 88.1609 19.6634 88.3609 19.5034C88.5609 19.3301 88.7209 19.1301 88.8409 18.9034C88.9743 18.6634 89.0809 18.4167 89.1609 18.1634L91.0609 18.6034C90.9409 19.0967 90.7543 19.5367 90.5009 19.9234C90.2609 20.2967 89.9543 20.6234 89.5809 20.9034C89.2076 21.1701 88.7676 21.3767 88.2609 21.5234C87.7676 21.6701 87.1943 21.7434 86.5409 21.7434ZM95.8258 21.7434C95.2524 21.7434 94.7391 21.6367 94.2858 21.4234C93.8324 21.1967 93.4724 20.8634 93.2058 20.4234C92.9524 19.9834 92.8258 19.4367 92.8258 18.7834C92.8258 18.2634 92.9191 17.8167 93.1058 17.4434C93.3058 17.0567 93.5991 16.7367 93.9858 16.4834C94.3858 16.2167 94.8924 16.0034 95.5058 15.8434C96.1191 15.6701 96.8458 15.5234 97.6858 15.4034C98.1524 15.3367 98.5324 15.2701 98.8258 15.2034C99.1324 15.1367 99.3524 15.0301 99.4858 14.8834C99.6324 14.7367 99.7058 14.5167 99.7058 14.2234C99.7058 13.7701 99.5458 13.3834 99.2258 13.0634C98.9191 12.7301 98.4191 12.5634 97.7258 12.5634C97.3391 12.5634 96.9524 12.6301 96.5658 12.7634C96.1924 12.8967 95.8658 13.1167 95.5858 13.4234C95.3191 13.7167 95.1391 14.1167 95.0458 14.6234L93.0858 14.0034C93.2058 13.4967 93.3991 13.0501 93.6658 12.6634C93.9324 12.2634 94.2658 11.9301 94.6658 11.6634C95.0658 11.3834 95.5258 11.1767 96.0458 11.0434C96.5791 10.8967 97.1591 10.8234 97.7858 10.8234C98.7058 10.8234 99.4658 10.9767 100.066 11.2834C100.666 11.5901 101.112 12.0634 101.406 12.7034C101.712 13.3301 101.866 14.1367 101.866 15.1234V17.2434C101.866 17.6834 101.872 18.1501 101.886 18.6434C101.912 19.1234 101.939 19.6101 101.966 20.1034C102.006 20.5834 102.052 21.0434 102.106 21.4834H100.126C100.086 21.0834 100.046 20.6701 100.006 20.2434C99.9791 19.8167 99.9524 19.3834 99.9258 18.9434H99.6258C99.4391 19.4501 99.1724 19.9167 98.8258 20.3434C98.4924 20.7701 98.0724 21.1101 97.5658 21.3634C97.0724 21.6167 96.4924 21.7434 95.8258 21.7434ZM96.5858 20.0634C96.8658 20.0634 97.1458 20.0167 97.4258 19.9234C97.7191 19.8301 98.0058 19.6901 98.2858 19.5034C98.5791 19.3034 98.8458 19.0501 99.0858 18.7434C99.3391 18.4367 99.5591 18.0701 99.7458 17.6434L99.7258 15.7634L100.246 15.8634C100.019 16.0634 99.7324 16.2167 99.3858 16.3234C99.0524 16.4301 98.6858 16.5167 98.2858 16.5834C97.8858 16.6367 97.4858 16.7034 97.0858 16.7834C96.6991 16.8501 96.3391 16.9501 96.0058 17.0834C95.6858 17.2034 95.4258 17.3767 95.2258 17.6034C95.0391 17.8301 94.9458 18.1434 94.9458 18.5434C94.9458 19.0367 95.0991 19.4167 95.4058 19.6834C95.7124 19.9367 96.1058 20.0634 96.5858 20.0634ZM104.773 21.4834V16.0634V11.0834H106.653L106.553 14.6834H106.893C107.013 13.8701 107.2 13.1767 107.453 12.6034C107.707 12.0301 108.053 11.5967 108.493 11.3034C108.933 10.9967 109.48 10.8434 110.133 10.8434C110.267 10.8434 110.413 10.8501 110.573 10.8634C110.733 10.8767 110.913 10.9167 111.113 10.9834L111.013 13.2634C110.813 13.1834 110.607 13.1301 110.393 13.1034C110.18 13.0634 109.987 13.0434 109.813 13.0434C109.28 13.0434 108.827 13.1967 108.453 13.5034C108.08 13.7967 107.767 14.2101 107.513 14.7434C107.273 15.2634 107.087 15.8701 106.953 16.5634V21.4834H104.773Z" fill="#363636"/>
</svg>
