<svg width="32" height="32" viewBox="0 0 32 32" fill="none" xmlns="http://www.w3.org/2000/svg">
<path d="M5.19031 21.5213C5.19031 21.5213 8.29987 31.3559 9.04826 31.8764C9.79664 32.3969 31.7366 29.8604 31.7366 29.8604L31.1138 28.9372L31.0843 22.5724L31.9049 22.5243L23.5234 7.82422L4.58456 9.66679C4.58456 9.66679 3.57372 10.5988 3.43298 11.4144C3.29224 12.2299 3.32838 13.4494 3.32838 13.4494L5.19031 21.5213Z" fill="#363636"/>
<path d="M9.78457 32C9.3671 32 9.1037 31.9772 9.03047 31.9265C8.27543 31.4022 5.27713 21.9424 5.15066 21.5423V21.5359L3.28397 13.4603V13.4514C3.28397 13.4388 3.25449 12.2091 3.38953 11.3999C3.52456 10.5907 4.51829 9.65231 4.56108 9.61305L4.57154 9.60418H4.5839L23.5465 7.75781L23.5617 7.78567L32.0003 22.5807L31.135 22.6326L31.1644 28.9126L31.8387 29.9117L31.7436 29.9219C30.9343 30.0156 13.6786 32 9.78457 32ZM5.2391 21.4891C6.3127 24.8842 8.49415 31.406 9.07422 31.8087C9.65429 32.2115 24.0324 30.6753 31.6409 29.7965L31.0703 28.9505V28.9265L31.0408 22.5009L31.8158 22.4553L23.5047 7.88952L4.60482 9.72702C4.49736 9.8296 3.60539 10.6945 3.48272 11.4278C3.35529 12.1876 3.37621 13.3273 3.37811 13.4388L5.2391 21.4891Z" fill="#263238"/>
<path d="M31.0775 22.5713L9.55788 24.8786C9.23268 25.1643 8.95882 25.542 8.75582 25.9849C8.55282 26.4277 8.42568 26.9247 8.38348 27.4405C8.22562 29.2299 8.76861 31.0471 9.17275 31.308C9.46717 31.4758 9.7819 31.5714 10.1018 31.5904L31.107 28.931L31.0775 22.5713Z" fill="#E0E0E0"/>
<path d="M10.1072 31.6558C9.77964 31.6374 9.45737 31.5396 9.15624 31.367C8.72166 31.0859 8.18343 29.2142 8.34034 27.4413C8.38441 26.9164 8.51415 26.4107 8.72047 25.9596C8.92679 25.5085 9.2047 25.123 9.53471 24.83L9.55468 24.8212L31.1257 22.5024L31.1561 28.9926L31.1124 28.9989L10.1072 31.6558ZM9.56895 24.944C9.25393 25.2275 8.9888 25.5986 8.7918 26.0317C8.59481 26.4648 8.47063 26.9496 8.42782 27.4527C8.26902 29.2611 8.83482 31.0251 9.18857 31.2518C9.47706 31.4157 9.7853 31.5092 10.0986 31.5279L31.0544 28.8786L31.0249 22.6392L9.56895 24.944Z" fill="#263238"/>
<path d="M9.17573 0.357275L0.494643 16.3199C0.494643 16.3199 0.0191763 16.9404 0.0439006 18.4613C0.0686249 19.9822 0.124731 22.4631 0.464215 22.6404C0.803699 22.8176 25.9236 25.3504 25.9236 25.3504L31.7243 7.51101L31.2717 7.25774L31.4276 2.85963L31.808 1.43622L9.81381 0.0634766L9.17573 0.357275Z" fill="#E9B44C"/>
<path d="M25.9585 25.4148H25.9243C24.8982 25.3122 0.794839 22.8732 0.452503 22.6984C0.177682 22.5579 0.0426495 21.2915 0.000808352 18.465C-0.0220141 16.9339 0.445845 16.3033 0.465814 16.2767L9.15071 0.305196L9.81066 0H9.82017L31.8752 1.37781L31.4796 2.8734L31.3237 7.21199L31.7896 7.47793L31.7706 7.53744L25.9585 25.4148ZM9.20966 0.411571L0.537134 16.3577C0.527625 16.3717 0.0740304 16.9909 0.0959019 18.4612C0.110166 19.4375 0.15486 22.4097 0.485786 22.5794C0.811957 22.72 17.2289 24.408 25.8976 25.2882L31.6651 7.54504L31.2257 7.29177L31.3874 2.83794L31.743 1.49305L9.82492 0.127903L9.20966 0.411571Z" fill="#263238"/>
<path d="M1.28114 16.7752C1.28114 16.7752 0.495661 16.4511 0.272191 17.4566C0.0487217 18.4621 0.598362 22.1054 0.598362 22.1054C0.598362 22.1054 1.06717 22.3663 1.28304 22.3751C1.4989 22.384 25.6717 24.509 25.6717 24.509L31.2755 7.2534L31.4334 2.86035L26.072 18.3228L1.28114 16.7752Z" fill="white"/>
<path d="M25.6982 24.5752H25.6649C25.4234 24.5537 1.48927 22.449 1.27721 22.4414C1.06515 22.4338 0.595391 22.178 0.575421 22.1678L0.552597 22.1539L0.547843 22.121C0.525021 21.9715 -0.00084668 18.4485 0.223574 17.4417C0.24843 17.3051 0.294088 17.1767 0.357717 17.0645C0.421347 16.9523 0.501594 16.8587 0.593489 16.7895C0.8101 16.6551 1.05573 16.6286 1.28577 16.7148L26.0386 18.2611L31.4884 2.53906L31.3154 7.27783L25.6982 24.5752ZM0.635331 22.0602C0.730424 22.1121 1.10224 22.3046 1.28006 22.3135C1.49212 22.3211 24.2528 24.3232 25.6373 24.4448L31.225 7.23857L31.3705 3.18618L26.0985 18.389H26.0662L1.2696 16.8377H1.26295C1.05573 16.7593 0.83438 16.7813 0.638183 16.8997C0.557696 16.9616 0.487462 17.0446 0.431728 17.1436C0.375993 17.2426 0.335916 17.3557 0.313914 17.4759C0.108512 18.4029 0.582078 21.6929 0.635331 22.0602Z" fill="#263238"/>
<path d="M25.5176 18.2873L1.28114 16.7739C1.28114 16.7739 0.495661 16.4498 0.272191 17.4553C0.0487217 18.4608 0.598362 22.1041 0.598362 22.1041C0.598362 22.1041 1.06717 22.365 1.28304 22.3738C1.4989 22.3827 25.6717 24.5077 25.6717 24.5077L25.6384 18.4291L25.5176 18.2873Z" fill="#E0E0E0"/>
<path d="M25.7162 24.5771H25.6649C25.4234 24.5556 1.48927 22.4509 1.27721 22.4433C1.06515 22.4357 0.595391 22.1799 0.575421 22.1697L0.552597 22.1558L0.547843 22.1229C0.525021 21.9734 -0.000846667 18.4504 0.223574 17.4436C0.24843 17.307 0.294088 17.1786 0.357717 17.0664C0.421347 16.9542 0.501594 16.8606 0.593489 16.7914C0.8101 16.657 1.05573 16.6305 1.28577 16.7167L25.5346 18.2364L25.6839 18.4061V18.4352L25.7162 24.5771ZM0.635331 22.0608C0.730424 22.1127 1.10224 22.3052 1.28006 22.3141C1.49117 22.3217 24.0711 24.3074 25.624 24.4429L25.5907 18.458L25.4956 18.3529L1.2696 16.8383H1.26295C1.05573 16.76 0.83438 16.782 0.638183 16.9003C0.557696 16.9622 0.487462 17.0452 0.431727 17.1442C0.375993 17.2433 0.335916 17.3563 0.313914 17.4765C0.108512 18.4035 0.582078 21.6936 0.635331 22.0608Z" fill="#263238"/>
</svg>
