<svg width="52" height="52" viewBox="0 0 52 52" fill="none" xmlns="http://www.w3.org/2000/svg">
<g filter="url(#filter0_d_589_7377)">
<rect x="6" y="3" width="40" height="40" rx="20" fill="#FFFBC9"/>
<path d="M15.1875 28.5208C15.1875 28.5208 18.2977 38.3555 19.0462 38.876C19.7947 39.3964 41.7391 36.8599 41.7391 36.8599L41.1161 35.9367L41.0866 29.5719L41.9074 29.5238L33.5242 14.8237L14.5816 16.6663C14.5816 16.6663 13.5706 17.5984 13.4298 18.4139C13.2891 19.2294 13.3252 20.449 13.3252 20.449L15.1875 28.5208Z" fill="#363636"/>
<path d="M19.78 39C19.3624 39 19.099 38.9772 19.0257 38.9265C18.2706 38.4023 15.2717 28.9425 15.1452 28.5423V28.536L13.2781 20.4603V20.4514C13.2781 20.4388 13.2486 19.2091 13.3837 18.3999C13.5187 17.5907 14.5127 16.6523 14.5555 16.613L14.5659 16.6042H14.5783L33.5446 14.7578L33.5599 14.7857L42.0001 29.5807L41.1346 29.6326L41.1641 35.9126L41.8384 36.9117L41.7433 36.9219C40.9339 37.0156 23.6748 39 19.78 39ZM15.2336 28.4891C16.3074 31.8842 18.4893 38.4061 19.0695 38.8088C19.6497 39.2115 34.0307 37.6754 41.6406 36.7965L41.0699 35.9506V35.9265L41.0404 29.5009L41.8156 29.4553L33.5028 14.8895L14.5992 16.727C14.4917 16.8296 13.5996 17.6945 13.4769 18.4278C13.3494 19.1876 13.3704 20.3273 13.3723 20.4388L15.2336 28.4891Z" fill="#263238"/>
<path d="M41.0864 29.5718L19.5625 31.8791C19.2372 32.1648 18.9633 32.5425 18.7603 32.9854C18.5573 33.4282 18.4301 33.9252 18.3879 34.441C18.23 36.2304 18.7731 38.0476 19.1773 38.3085C19.4718 38.4763 19.7866 38.5719 20.1066 38.5909L41.1159 35.9315L41.0864 29.5718Z" fill="#E0E0E0"/>
<path d="M20.1109 38.6557C19.7833 38.6373 19.461 38.5395 19.1598 38.3669C18.7252 38.0858 18.1868 36.2141 18.3438 34.4412C18.3878 33.9163 18.5176 33.4106 18.724 32.9595C18.9303 32.5084 19.2083 32.1229 19.5384 31.8299L19.5583 31.821L41.1336 29.5023L41.1641 35.9925L41.1203 35.9988L20.1109 38.6557ZM19.5726 31.9439C19.2575 32.2274 18.9923 32.5985 18.7953 33.0316C18.5983 33.4647 18.4741 33.9495 18.4313 34.4526C18.2724 36.261 18.8383 38.025 19.1922 38.2517C19.4807 38.4155 19.789 38.509 20.1024 38.5278L41.0623 35.8785L41.0328 29.6391L19.5726 31.9439Z" fill="#263238"/>
<path d="M19.1822 7.35843L10.4994 23.3211C10.4994 23.3211 10.0238 23.9416 10.0485 25.4625C10.0733 26.9834 10.1294 29.4643 10.4689 29.6415C10.8085 29.8188 35.9334 32.3516 35.9334 32.3516L41.7352 14.5122L41.2825 14.2589L41.4385 9.86079L41.8189 8.43739L19.8204 7.06464L19.1822 7.35843Z" fill="#E9B44C"/>
<path d="M35.9636 32.4148H35.9294C34.9031 32.3123 10.795 29.8732 10.4526 29.6985C10.1777 29.5579 10.0427 28.2915 10.0008 25.465C9.97798 23.9339 10.4459 23.3033 10.4659 23.2767L19.1525 7.3052L19.8126 7H19.8221L41.8815 8.37781L41.4858 9.8734L41.3298 14.212L41.7959 14.4779L41.7769 14.5375L35.9636 32.4148ZM19.2115 7.41157L10.5372 23.3577C10.5277 23.3717 10.074 23.9909 10.0959 25.4612C10.1102 26.4376 10.1549 29.4097 10.4859 29.5794C10.8121 29.72 27.2323 31.4081 35.9027 32.2882L41.6713 14.5451L41.2319 14.2918L41.3936 9.83794L41.7493 8.49305L19.8269 7.1279L19.2115 7.41157Z" fill="#263238"/>
<path d="M11.2809 23.7758C11.2809 23.7758 10.4952 23.4516 10.2717 24.4571C10.0482 25.4626 10.5979 29.1059 10.5979 29.1059C10.5979 29.1059 11.0669 29.3668 11.2828 29.3757C11.4987 29.3845 35.6762 31.5095 35.6762 31.5095L41.2812 14.2539L41.4391 9.86084L36.0766 25.3233L11.2809 23.7758Z" fill="white"/>
<path d="M35.7059 31.5752H35.6726C35.431 31.5537 11.4922 29.449 11.2801 29.4414C11.068 29.4338 10.5982 29.178 10.5782 29.1678L10.5554 29.1539L10.5506 29.121C10.5278 28.9716 10.0018 25.4485 10.2263 24.4417C10.2511 24.3051 10.2968 24.1767 10.3604 24.0645C10.4241 23.9524 10.5043 23.8588 10.5963 23.7896C10.8129 23.6551 11.0586 23.6286 11.2887 23.7148L36.0464 25.2611L41.4973 9.53906L41.3242 14.2778L35.7059 31.5752ZM10.6381 29.0602C10.7332 29.1121 11.1051 29.3046 11.283 29.3135C11.4951 29.3211 34.2602 31.3232 35.645 31.4448L41.2338 14.2386L41.3794 10.1862L36.1063 25.389H36.074L11.2725 23.8377H11.2658C11.0586 23.7594 10.8372 23.7813 10.641 23.8997C10.5605 23.9616 10.4902 24.0446 10.4345 24.1436C10.3787 24.2426 10.3386 24.3557 10.3166 24.4759C10.1112 25.4029 10.5848 28.693 10.6381 29.0602Z" fill="#263238"/>
<path d="M35.5221 25.289L11.2809 23.7757C11.2809 23.7757 10.4952 23.4515 10.2717 24.457C10.0482 25.4625 10.5979 29.1059 10.5979 29.1059C10.5979 29.1059 11.0669 29.3668 11.2828 29.3756C11.4987 29.3845 35.6762 31.5095 35.6762 31.5095L35.6429 25.4309L35.5221 25.289Z" fill="#E0E0E0"/>
<path d="M35.724 31.5766H35.6726C35.431 31.5551 11.4922 29.4504 11.2801 29.4428C11.068 29.4352 10.5982 29.1794 10.5782 29.1692L10.5554 29.1553L10.5506 29.1224C10.5278 28.973 10.0018 25.4499 10.2263 24.4431C10.2511 24.3065 10.2968 24.1781 10.3604 24.0659C10.4241 23.9537 10.5043 23.8602 10.5963 23.791C10.8129 23.6565 11.0586 23.63 11.2887 23.7162L35.5423 25.2359L35.6916 25.4056V25.4347L35.724 31.5766ZM10.6381 29.0603C10.7332 29.1123 11.1051 29.3047 11.283 29.3136C11.4941 29.3212 34.0785 31.3069 35.6317 31.4424L35.5984 25.4575L35.5033 25.3524L11.2725 23.8378H11.2658C11.0586 23.7595 10.8372 23.7815 10.641 23.8999C10.5605 23.9617 10.4902 24.0447 10.4345 24.1437C10.3787 24.2428 10.3386 24.3558 10.3166 24.4761C10.1112 25.403 10.5848 28.6931 10.6381 29.0603Z" fill="#263238"/>
</g>
<defs>
<filter id="filter0_d_589_7377" x="0" y="0" width="52" height="52" filterUnits="userSpaceOnUse" color-interpolation-filters="sRGB">
<feFlood flood-opacity="0" result="BackgroundImageFix"/>
<feColorMatrix in="SourceAlpha" type="matrix" values="0 0 0 0 0 0 0 0 0 0 0 0 0 0 0 0 0 0 127 0" result="hardAlpha"/>
<feMorphology radius="2" operator="erode" in="SourceAlpha" result="effect1_dropShadow_589_7377"/>
<feOffset dy="3"/>
<feGaussianBlur stdDeviation="4"/>
<feComposite in2="hardAlpha" operator="out"/>
<feColorMatrix type="matrix" values="0 0 0 0 0.211765 0 0 0 0 0.211765 0 0 0 0 0.211765 0 0 0 0.2 0"/>
<feBlend mode="normal" in2="BackgroundImageFix" result="effect1_dropShadow_589_7377"/>
<feBlend mode="normal" in="SourceGraphic" in2="effect1_dropShadow_589_7377" result="shape"/>
</filter>
</defs>
</svg>
