<svg width="179" height="112" viewBox="0 0 179 112" fill="none" xmlns="http://www.w3.org/2000/svg">
<path d="M171.344 0C171.341 0.0445097 171.331 0.0883178 171.315 0.129681C171.291 0.220936 171.262 0.341009 171.219 0.489899C171.122 0.816498 170.993 1.27758 170.824 1.86834C170.656 2.4591 170.43 3.19394 170.209 4.04885C169.988 4.90377 169.699 5.87397 169.44 6.95463C169.18 8.03528 168.872 9.2168 168.594 10.4992C168.315 11.7816 168.026 13.1456 167.733 14.5865C167.185 17.4682 166.656 20.6718 166.238 24.0386C165.82 27.4054 165.574 30.6426 165.411 33.582C165.348 35.0517 165.276 36.4637 165.262 37.7557C165.247 39.0477 165.228 40.2821 165.228 41.3963C165.228 42.5106 165.257 43.5144 165.276 44.403C165.296 45.2915 165.315 46.0456 165.344 46.6699C165.372 47.2943 165.387 47.7602 165.397 48.1108C165.397 48.2645 165.397 48.3894 165.397 48.4854C165.402 48.5269 165.402 48.5689 165.397 48.6103C165.392 48.5688 165.392 48.5269 165.397 48.4854C165.397 48.3894 165.397 48.2693 165.368 48.1156C165.368 47.7698 165.315 47.2895 165.276 46.6747C165.238 46.06 165.19 45.2915 165.166 44.403C165.142 43.5144 165.089 42.5106 165.089 41.3963C165.089 40.2821 165.065 39.0621 165.089 37.7509C165.113 36.4397 165.161 35.0421 165.219 33.5676C165.372 30.6234 165.622 27.391 166.031 24.0146C166.44 20.6381 166.993 17.4394 167.546 14.548C167.844 13.1072 168.118 11.7287 168.425 10.456C168.733 9.18318 169.017 7.99685 169.3 6.9162C169.584 5.83554 169.858 4.87015 170.098 4.03445C170.339 3.19874 170.579 2.45429 170.752 1.85873C170.925 1.26317 171.084 0.821305 171.185 0.494707C171.233 0.345817 171.276 0.230544 171.305 0.139289C171.313 0.0916613 171.326 0.0449813 171.344 0Z" fill="#263238"/>
<path d="M159.11 102.129C159.11 102.129 152.1 65.8624 152.086 58.4227C152.062 48.0964 159.975 43.9851 159.975 43.9851L156.903 35.2246H173.807L171.134 43.9227C171.134 43.9227 180.038 48.6392 178.798 59.3497C176.475 79.3682 172.774 102.148 172.774 102.148L159.11 102.129Z" fill="#F5F5F5"/>
<path d="M159.11 102.129H159.346H160.033H162.697L172.793 102.1L172.735 102.148C173.774 95.578 175.11 86.7791 176.538 76.4192C177.245 71.232 177.98 65.6558 178.663 59.7579C178.759 59.023 178.769 58.2834 178.822 57.5341C178.822 57.1643 178.793 56.7897 178.779 56.415C178.775 56.0385 178.743 55.6628 178.682 55.2911C178.62 54.9165 178.562 54.5419 178.5 54.1673C178.437 53.7926 178.303 53.4324 178.211 53.0626L178.057 52.5103C177.995 52.3278 177.918 52.1549 177.846 51.9723C177.697 51.6217 177.581 51.2519 177.403 50.9061C176.73 49.4938 175.849 48.1904 174.788 47.0397C173.718 45.8575 172.477 44.8424 171.105 44.0283L171.024 43.9851L171.053 43.9034C171.903 41.1274 172.803 38.188 173.721 35.2054L173.827 35.3446H156.903L157.004 35.2006L160.077 43.9611L160.105 44.0427L160.024 44.0908C158.151 45.2083 156.531 46.7033 155.269 48.4806C154.049 50.1887 153.173 52.1166 152.687 54.1577C152.236 56.1119 152.092 58.1243 152.259 60.1229C152.432 62.0729 152.663 63.9652 152.913 65.8143C153.942 73.182 155.081 79.6611 156.019 85.026C156.956 90.3909 157.75 94.6847 158.288 97.6192C158.557 99.0601 158.769 100.213 158.903 100.981C158.971 101.356 159.024 101.649 159.062 101.846C159.101 102.043 159.11 102.144 159.11 102.144C159.11 102.144 159.11 102.048 159.043 101.855C158.976 101.663 158.947 101.375 158.87 100.986C158.721 100.218 158.5 99.0938 158.216 97.6241C157.653 94.6943 156.851 90.4197 155.884 85.0404C154.918 79.6611 153.774 73.1868 152.735 65.8287C152.48 63.9892 152.254 62.0873 152.072 60.1277C151.898 58.1087 152.041 56.075 152.495 54.1C152.984 52.0294 153.869 50.0725 155.101 48.3365C156.376 46.5333 158.013 45.0154 159.908 43.8794L159.855 44.0043C158.862 41.1738 157.836 38.2552 156.778 35.2486L156.73 35.1045H173.942L173.899 35.2438C172.98 38.2264 172.077 41.1706 171.226 43.9419L171.173 43.8122C172.568 44.6361 173.829 45.6678 174.913 46.8716C175.989 48.0368 176.882 49.3582 177.562 50.7908C177.745 51.1414 177.86 51.5161 178.014 51.8763C178.081 52.0588 178.163 52.2365 178.226 52.419L178.379 52.9809C178.476 53.3556 178.61 53.7206 178.673 54.1L178.86 55.2383C178.919 55.6151 178.951 55.9954 178.956 56.3766C178.956 56.756 179.004 57.1355 179 57.5149C178.942 58.269 178.932 59.023 178.836 59.7579C178.144 65.6558 177.394 71.2368 176.687 76.4192C175.245 86.7839 173.884 95.5732 172.841 102.144V102.192H172.788L162.692 102.163H160.038H159.36L159.11 102.129Z" fill="#263238"/>
<path d="M175.251 48.0769C175.188 48.0833 175.126 48.0833 175.063 48.0769C174.879 48.0588 174.695 48.0508 174.51 48.0529C173.803 48.0646 173.105 48.2182 172.457 48.5044C171.437 48.9608 170.537 49.6482 169.828 50.512C169.376 51.0446 168.97 51.615 168.616 52.217C168.207 52.8823 167.851 53.5794 167.554 54.3015C167.223 55.0904 167.059 55.9391 167.073 56.7942C167.101 57.7165 167.457 58.5987 168.078 59.2821C168.4 59.6344 168.812 59.8932 169.27 60.0314C169.743 60.1699 170.247 60.1565 170.712 59.9929C171.196 59.809 171.63 59.5162 171.982 59.1372C172.334 58.7581 172.594 58.3032 172.741 57.8076C172.884 57.2832 172.894 56.7314 172.769 56.2023C172.645 55.6732 172.391 55.1833 172.03 54.777C171.293 53.8988 170.273 53.3058 169.145 53.1007C167.963 52.9214 166.755 53.0658 165.65 53.5186C164.502 53.977 163.44 54.6266 162.51 55.4398C160.634 57.0157 159.335 59.1698 158.818 61.5635C158.578 62.6934 158.601 63.8635 158.885 64.9832C159.121 66.0598 159.706 67.0287 160.549 67.74C160.947 68.0787 161.431 68.3014 161.948 68.3836C162.447 68.4606 162.957 68.3604 163.39 68.1003C163.791 67.8246 164.118 67.455 164.343 67.0238C164.567 66.5925 164.683 66.1129 164.679 65.6268C164.693 65.1623 164.6 64.7008 164.409 64.2771C164.214 63.873 163.939 63.5121 163.602 63.2157C162.95 62.6644 162.161 62.2993 161.318 62.1591C159.856 61.9121 158.353 62.1714 157.058 62.8939C156.07 63.4216 155.212 64.1614 154.544 65.06C154.114 65.6213 153.771 66.2448 153.529 66.9091C153.361 67.3606 153.303 67.6104 153.289 67.6104C153.334 67.3656 153.399 67.1247 153.481 66.8899C153.71 66.2134 154.042 65.5766 154.467 65.0024C155.135 64.0836 155.996 63.3228 156.991 62.7738C158.313 62.0235 159.851 61.7456 161.352 61.9861C162.228 62.1266 163.049 62.5036 163.727 63.0764C164.084 63.3895 164.376 63.7698 164.587 64.1955C164.794 64.6469 164.895 65.14 164.88 65.6364C164.886 66.1574 164.762 66.6717 164.522 67.134C164.281 67.5963 163.93 67.9924 163.501 68.2876C163.026 68.5766 162.464 68.6889 161.914 68.6046C161.358 68.5187 160.836 68.2829 160.404 67.9226C159.522 67.1786 158.907 66.1665 158.654 65.0408C158.362 63.8867 158.336 62.6812 158.578 61.5155C158.991 59.6853 159.842 57.9823 161.058 56.5521C162.273 55.1219 163.818 54.0069 165.558 53.3025C166.706 52.8358 167.959 52.6881 169.183 52.875C170.372 53.0913 171.447 53.7167 172.222 54.6425C172.592 55.0935 172.859 55.6196 173.005 56.1842C173.153 56.742 173.138 57.3301 172.962 57.8797C172.804 58.4076 172.526 58.892 172.15 59.2952C171.774 59.6984 171.31 60.0095 170.794 60.2043C170.287 60.3798 169.737 60.3932 169.222 60.2427C168.731 60.088 168.288 59.8083 167.938 59.431C167.29 58.7079 166.921 57.7786 166.895 56.8086C166.891 55.9283 167.069 55.0567 167.419 54.2487C167.725 53.5197 168.088 52.8163 168.505 52.145C168.872 51.5428 169.287 50.971 169.746 50.4351C170.475 49.5623 171.401 48.8743 172.448 48.4275C173.107 48.1461 173.818 48.0054 174.534 48.0145C174.775 48.0092 175.015 48.0301 175.251 48.0769Z" fill="#5277A0"/>
<path d="M175.681 75.4731C175.722 76.0924 175.668 76.7142 175.522 77.3175C175.371 78.0302 175.122 78.7188 174.782 79.3635C174.339 80.2255 173.739 80.9975 173.013 81.6401C172.125 82.4199 171.063 82.9765 169.917 83.2635C168.601 83.6063 167.217 83.5864 165.912 83.2058C164.465 82.7706 163.198 81.8793 162.301 80.6651C161.307 79.3756 160.815 77.7698 160.916 76.1455C160.958 75.3063 161.315 74.5136 161.917 73.9266C162.227 73.6553 162.603 73.4686 163.007 73.3845C163.412 73.3003 163.831 73.3216 164.224 73.4463C164.604 73.5518 164.959 73.7342 165.266 73.982C165.572 74.2298 165.825 74.5379 166.008 74.8872C166.337 75.5666 166.42 76.3387 166.243 77.0725C166.089 77.7617 165.757 78.3988 165.282 78.9216C164.825 79.4049 164.271 79.7862 163.657 80.0407C162.559 80.4843 161.364 80.6349 160.191 80.4778C159.228 80.3596 158.293 80.0718 157.431 79.6277C156.781 79.2978 156.179 78.8809 155.642 78.3885C155.173 77.9825 154.769 77.5061 154.445 76.9764C154.445 76.9764 154.479 77.0053 154.527 77.0677C154.575 77.1301 154.662 77.231 154.748 77.3463C155.044 77.69 155.366 78.0111 155.71 78.3068C156.975 79.4111 158.546 80.1046 160.215 80.2952C161.357 80.4381 162.516 80.2825 163.58 79.8438C164.164 79.5965 164.689 79.23 165.123 78.7679C165.572 78.2721 165.884 77.6678 166.027 77.0149C166.191 76.3325 166.112 75.6145 165.806 74.9832C165.635 74.6653 165.401 74.3855 165.118 74.1609C164.836 73.9363 164.51 73.7716 164.162 73.6768C163.808 73.5633 163.432 73.5413 163.068 73.6127C162.704 73.6841 162.364 73.8466 162.08 74.0851C161.525 74.634 161.197 75.3712 161.162 76.1503C161.067 77.7144 161.542 79.2599 162.498 80.5018C163.355 81.6901 164.575 82.5683 165.974 83.0041C167.241 83.3812 168.587 83.4078 169.868 83.0809C170.988 82.8113 172.027 82.2777 172.897 81.5248C173.616 80.9026 174.214 80.1537 174.662 79.3155C175.006 78.6831 175.264 78.008 175.431 77.3078C175.536 76.8657 175.607 76.4161 175.643 75.963C175.643 75.8189 175.643 75.7037 175.643 75.6076C175.649 75.5612 175.662 75.5158 175.681 75.4731Z" fill="#5277A0"/>
<path d="M172.524 92.5668C172.524 92.61 171.769 92.2162 170.49 91.8464C170.142 91.7431 169.789 91.6581 169.432 91.5918C169.048 91.5054 168.634 91.4621 168.197 91.4045C166.294 91.2115 164.371 91.426 162.557 92.0337C162.149 92.1826 161.75 92.3171 161.399 92.4852C161.07 92.6274 160.749 92.7878 160.437 92.9655C159.269 93.609 158.639 94.1566 158.605 94.1182C158.735 93.9712 158.88 93.8391 159.038 93.7243C159.21 93.5732 159.394 93.4351 159.586 93.3113C159.832 93.1372 160.087 92.9769 160.351 92.831C160.662 92.6426 160.983 92.4711 161.312 92.3171C161.668 92.1394 162.067 91.9953 162.485 91.8368C163.404 91.5236 164.353 91.3078 165.317 91.1932C166.276 91.0958 167.243 91.0958 168.202 91.1932C168.622 91.2424 169.039 91.313 169.452 91.4045C169.812 91.4793 170.169 91.5739 170.519 91.6879C170.809 91.7773 171.095 91.8815 171.375 92.0001C171.588 92.083 171.797 92.1776 172 92.2834C172.186 92.3547 172.362 92.4499 172.524 92.5668Z" fill="#5277A0"/>
<path d="M171.347 44.4219C171.174 44.569 170.987 44.6992 170.789 44.8109C170.419 45.0559 169.871 45.3777 169.179 45.7427C167.36 46.6948 165.444 47.4453 163.462 47.9808C161.48 48.5108 159.445 48.8201 157.395 48.903C156.611 48.9318 155.953 48.927 155.534 48.903C155.305 48.9048 155.076 48.8839 154.852 48.8405C155.078 48.8095 155.306 48.7982 155.534 48.8069C155.972 48.8069 156.606 48.7829 157.385 48.7301C159.417 48.5978 161.432 48.2681 163.4 47.7455C165.363 47.2126 167.271 46.4921 169.097 45.5938C169.799 45.248 170.356 44.9502 170.736 44.7341C170.929 44.6103 171.134 44.5057 171.347 44.4219Z" fill="#5277A0"/>
<path d="M173.475 35.6237C173.475 35.6237 173.057 35.5853 172.307 35.5853C171.251 35.5895 170.203 35.7597 169.201 36.0896C168.51 36.3194 167.846 36.6221 167.22 36.9926C166.875 37.2024 166.543 37.4317 166.225 37.6794C165.888 37.9365 165.582 38.2332 165.316 38.5631C165.038 38.901 164.846 39.3016 164.758 39.7302C164.72 39.9469 164.735 40.1697 164.803 40.3791C164.871 40.5884 164.99 40.7779 165.148 40.931C165.507 41.24 165.936 41.4561 166.398 41.5601C166.859 41.7257 167.353 41.7816 167.84 41.7234C168.062 41.6583 168.256 41.5236 168.395 41.3393C168.533 41.155 168.608 40.9309 168.609 40.7004C168.646 40.2296 168.548 39.7582 168.326 39.3412C167.915 38.5264 167.255 37.8636 166.441 37.4488C165.711 37.0591 164.903 36.8391 164.076 36.8053C163.351 36.7911 162.63 36.8982 161.941 37.1223C160.94 37.4502 159.999 37.9367 159.153 38.5631C158.855 38.7889 158.629 38.9714 158.475 39.0962C158.4 39.1639 158.32 39.2249 158.234 39.2788C158.297 39.1992 158.366 39.1253 158.441 39.0578C158.585 38.9233 158.806 38.7264 159.1 38.4911C159.933 37.8165 160.876 37.29 161.888 36.9349C162.594 36.6936 163.335 36.575 164.081 36.5843C164.941 36.607 165.785 36.8272 166.547 37.2279C167.406 37.6603 168.105 38.3552 168.542 39.2115C168.784 39.6685 168.891 40.185 168.85 40.7004C168.831 40.9739 168.74 41.2373 168.585 41.4641C168.424 41.7018 168.181 41.8725 167.903 41.9444C167.377 42.0147 166.843 41.9571 166.345 41.7763C165.844 41.6621 165.379 41.4243 164.994 41.0847C164.809 40.9061 164.67 40.6849 164.591 40.4403C164.511 40.1958 164.493 39.9355 164.537 39.6822C164.633 39.2156 164.843 38.78 165.148 38.4142C165.428 38.0687 165.751 37.7604 166.109 37.4969C166.436 37.2446 166.778 37.0136 167.133 36.8053C167.775 36.434 168.455 36.1344 169.162 35.9119C170.185 35.5911 171.254 35.4434 172.326 35.4749C172.616 35.4827 172.905 35.5083 173.191 35.5517C173.288 35.5647 173.383 35.5889 173.475 35.6237Z" fill="#5277A0"/>
<path d="M175.819 12.9775C175.673 13.1394 175.512 13.2873 175.339 13.4194C175.017 13.6884 174.56 14.0918 174.012 14.5961C171.125 17.2453 168.724 20.3773 166.916 23.8513C166.569 24.5141 166.3 25.0617 166.127 25.4411C166.043 25.643 165.941 25.8374 165.824 26.0222C165.881 25.8115 165.954 25.6058 166.045 25.4075C166.199 25.0136 166.449 24.4469 166.776 23.7793C167.651 22.0186 168.692 20.346 169.887 18.7843C171.082 17.2155 172.428 15.7677 173.906 14.4616C174.473 13.9813 174.944 13.5827 175.286 13.333C175.454 13.2012 175.633 13.0824 175.819 12.9775Z" fill="#263238"/>
<path d="M163.23 4.52441C163.316 4.71549 163.387 4.91301 163.442 5.11516C163.562 5.4994 163.726 6.07575 163.923 6.75296C164.312 8.1362 164.798 10.067 165.255 12.2139C165.711 14.3608 166.048 16.3252 166.259 17.7468C166.365 18.4625 166.442 19.0388 166.485 19.4375C166.522 19.6435 166.538 19.8526 166.533 20.0618C166.471 19.863 166.428 19.6588 166.404 19.4519L166.105 17.7757C165.855 16.3588 165.495 14.4136 165.043 12.2619C164.591 10.1102 164.12 8.18424 163.774 6.79139C163.605 6.12379 163.471 5.57145 163.36 5.13919C163.3 4.93824 163.256 4.7326 163.23 4.52441Z" fill="#263238"/>
<path d="M158.329 21.0459C158.459 21.1162 158.58 21.2017 158.689 21.3005C158.91 21.4734 159.228 21.7327 159.603 22.0689C160.588 22.9422 161.517 23.8758 162.386 24.8642C163.25 25.8505 164.053 26.8882 164.79 27.9717C165.074 28.3896 165.295 28.7354 165.439 28.9755C165.525 29.0948 165.593 29.2259 165.641 29.3646C165.612 29.3646 165.261 28.8843 164.68 28.063C164.098 27.2417 163.237 26.1418 162.223 25.0083C161.209 23.8748 160.228 22.8758 159.497 22.1842C158.766 21.4926 158.309 21.0459 158.329 21.0459Z" fill="#263238"/>
<g opacity="0.4">
<path d="M32.8181 71.3359C32.3814 70.9801 31.8921 70.694 31.3678 70.4877C31.1804 70.4022 30.9694 70.3834 30.7698 70.4343C30.5703 70.4853 30.3942 70.6029 30.2708 70.7677C30.109 70.9916 29.9803 71.2376 29.8889 71.4982C29.6452 72.172 29.3324 73.0852 29.1089 73.7548C29.0201 74.0178 29.0113 74.3012 29.0836 74.5692C29.1559 74.8372 29.3061 75.0778 29.5152 75.2606L32.6922 78.0813V79.0716L31.575 82.558L36.4502 84.2748C36.4502 84.2748 38.0183 78.9986 38.1077 78.2315C38.1727 77.643 36.7711 75.8897 35.9261 75.362C35.6564 75.1925 35.3723 75.0472 35.077 74.9278L32.8913 73.7345L33.0294 72.8701C33.1029 72.4205 33.061 71.9597 32.9075 71.5307L32.8181 71.3359Z" fill="#FFBE9D"/>
<path d="M31.3958 71.9131C31.5155 71.9134 31.6351 71.9229 31.7533 71.9415H31.7777V71.9659C31.7539 72.1475 31.7444 72.3307 31.7493 72.5138C31.7504 72.7631 31.8044 73.0093 31.9077 73.2362C31.9656 73.3657 32.055 73.4787 32.1677 73.565C32.2227 73.6122 32.2889 73.6448 32.3599 73.6597C32.4309 73.6746 32.5046 73.6714 32.574 73.6502C32.6415 73.6131 32.6994 73.5607 32.7431 73.4973C32.7869 73.4339 32.8152 73.3612 32.8259 73.2849C32.8665 73.1185 32.899 72.94 32.9274 72.7614C33.0427 72.3086 32.9787 71.8288 32.7487 71.422C32.5284 71.1128 32.2238 70.8733 31.8711 70.7321C31.6312 70.6322 31.3841 70.5507 31.1317 70.4885C31.0372 70.4688 30.9447 70.4402 30.8555 70.4033C30.953 70.4075 31.0497 70.4225 31.1439 70.448C31.4016 70.4955 31.6545 70.5662 31.8996 70.659C32.2742 70.7987 32.5993 71.0458 32.834 71.3693C32.9672 71.5664 33.0482 71.794 33.0696 72.0308C33.0918 72.2802 33.0795 72.5315 33.0331 72.7776C33.0046 72.9602 32.9721 73.1348 32.9274 73.3093C32.9135 73.4023 32.8775 73.4907 32.8224 73.567C32.7672 73.6432 32.6946 73.7052 32.6105 73.7476C32.5252 73.7749 32.4343 73.7795 32.3467 73.761C32.2591 73.7424 32.1778 73.7015 32.1108 73.6421C31.9858 73.5455 31.8878 73.4183 31.8264 73.2727C31.7204 73.0341 31.669 72.7748 31.6761 72.5138C31.6807 72.3286 31.6997 72.1441 31.733 71.9618L31.7533 71.9862C31.6319 71.9743 31.5121 71.9498 31.3958 71.9131Z" fill="#EB996E"/>
<path d="M31.7191 72.7901C31.7191 72.8185 31.5078 72.7455 31.256 72.7495C31.0041 72.7536 30.8131 72.8307 30.7969 72.8023C30.9293 72.7012 31.0913 72.6465 31.258 72.6465C31.4246 72.6465 31.5867 72.7012 31.7191 72.8023V72.7901Z" fill="#EB996E"/>
<path d="M37.233 78.0614C37.1767 77.9828 37.1265 77.9001 37.0827 77.8139C36.9852 77.6272 36.8633 77.408 36.7211 77.1117C36.5345 76.7733 36.3096 76.4573 36.0508 76.1701C35.7325 75.8202 35.3723 75.5108 34.9783 75.2488C34.2489 74.7834 33.4549 74.4279 32.6219 74.1936C32.305 74.1002 32.045 74.0312 31.8622 73.9866C31.7677 73.9668 31.6752 73.9383 31.5859 73.9014C31.6829 73.908 31.7793 73.9215 31.8744 73.942C32.0572 73.9785 32.3213 74.0353 32.6463 74.1205C33.4939 74.3347 34.3008 74.6856 35.0351 75.1595C35.443 75.4302 35.8144 75.7521 36.1402 76.1174C36.3994 76.4148 36.6205 76.7434 36.7983 77.0955C36.9486 77.3918 37.0543 77.6394 37.1315 77.8098C37.1723 77.8907 37.2063 77.9749 37.233 78.0614Z" fill="#EB996E"/>
<path d="M32.7475 79.2021L24.4678 93.4073C24.4678 93.4073 22.4039 96.4918 22.5989 98.3669C22.7939 100.242 24.4881 102.937 27.2141 103.063C29.9402 103.189 31.5409 100.372 31.5409 100.372L37.5495 80.4847L32.7475 79.2021Z" fill="#FFBE9D"/>
<path d="M33.0256 94.2153L43.4219 83.0176L48.2687 93.4726L37.5514 103.522L30.332 102.069L30.6245 95.5019L33.0256 94.2153Z" fill="#FFBE9D"/>
<path d="M33.7017 93.2324C33.7254 94.114 33.6145 94.994 33.3726 95.8421C33.199 96.7063 32.8963 97.5395 32.4748 98.3138C32.4138 98.2895 32.8282 97.1936 33.1654 95.7934C33.5026 94.3932 33.6448 93.2284 33.7017 93.2324Z" fill="#EB996E"/>
<path d="M0 90.7442L12.4317 101.483L18.7207 105.481L25.5541 102.027L26.5779 100.814L7.06904 83.1992L2.26291 87.5135L0.698778 86.0078L0.190946 86.4664L0 90.7442Z" fill="#FAFAFA"/>
<path d="M0 90.7442L0.698778 90.3749L6.68308 85.123L25.5541 102.027L17.6726 106.013L12.4317 101.483L0 90.7442Z" fill="#5277A0"/>
<path d="M15.06 102.417C15.0194 102.462 11.8464 99.7954 7.97473 96.4632C4.10301 93.1311 0.991017 90.3753 1.03164 90.3469C1.07227 90.3185 4.23708 92.9688 8.11286 96.3009C11.9886 99.633 15.0966 102.373 15.06 102.417Z" fill="#263238"/>
<path d="M7.06994 83.1992C6.98909 83.2991 6.89935 83.3915 6.80181 83.4752L6.03803 84.1855L3.4948 86.4948L2.42226 87.4486C1.88022 88.0548 1.4324 88.7388 1.09377 89.4779C0.963761 89.7498 0.866257 89.973 0.801254 90.1232C0.77244 90.2045 0.734266 90.2821 0.6875 90.3545C0.703003 90.271 0.727525 90.1893 0.760631 90.111C0.817508 89.9527 0.902822 89.7255 1.0247 89.4454C1.34461 88.6838 1.78644 87.9792 2.33288 87.3593L3.39729 86.3974L5.96896 84.1165L6.76931 83.4224C6.8637 83.3405 6.9642 83.2659 7.06994 83.1992Z" fill="#263238"/>
<path d="M0.69873 90.3749C0.682896 90.1614 0.682896 89.9471 0.69873 89.7336C0.69873 89.3278 0.69873 88.7961 0.69873 88.1913C0.69873 87.6475 0.674356 87.1442 0.662168 86.6491C0.638652 86.436 0.638652 86.2209 0.662168 86.0078C0.705387 86.2176 0.729863 86.4309 0.735299 86.645C0.763737 87.0509 0.792175 87.5866 0.804363 88.1913C0.818246 88.7071 0.804682 89.2233 0.763734 89.7377C0.771641 89.9521 0.749764 90.1665 0.69873 90.3749Z" fill="#263238"/>
<path d="M15.0615 91.3904C15.0041 91.3546 14.9509 91.3123 14.9031 91.2645L14.4684 90.8912L12.8839 89.4991L7.70402 84.8641L6.85899 84.1052H6.94431C5.14455 85.7732 3.48292 87.1775 2.41444 88.318C1.98515 88.7572 1.57836 89.2177 1.19564 89.6979C1.05344 89.8643 0.960003 90.0023 0.890937 90.1038C0.858314 90.1502 0.821609 90.1937 0.78125 90.2337C0.805071 90.1816 0.835073 90.1325 0.870623 90.0876C0.935625 89.9942 1.02501 89.8522 1.15907 89.6817C1.52741 89.1888 1.92348 88.7173 2.34537 88.2693C3.3976 87.1126 5.05923 85.6921 6.85086 84.024L6.89149 83.9834L6.93618 84.024L7.78121 84.7829L12.9449 89.43L14.5009 90.8546L14.9071 91.2605L15.0615 91.3904Z" fill="#263238"/>
<path d="M6.68359 85.1245C6.69343 84.8074 6.73424 84.492 6.80547 84.1829C6.83794 83.8658 6.92163 83.556 7.05329 83.2656C7.04346 83.5827 7.00264 83.8981 6.93142 84.2072C6.89974 84.5245 6.81601 84.8344 6.68359 85.1245Z" fill="#263238"/>
<path d="M47.7648 54.916L44.3359 63.5609L49.8327 68.0253C50.4341 65.8182 50.5608 63.5089 50.2044 61.2494C49.8479 58.9899 49.0165 56.8314 47.7648 54.916Z" fill="#263238"/>
<path d="M25.9357 52.8133C27.0488 50.8449 29.003 49.4488 31.1196 48.6573C33.2363 47.8659 35.5195 47.6264 37.7783 47.5534C39.0467 47.4528 40.3227 47.5905 41.5404 47.9592C43.7179 48.7344 46.5009 50.5081 47.8375 52.3953C48.9182 53.9213 50.7829 58.2681 51.0104 60.1067C51.2136 61.8113 48.9791 64.6077 47.7603 65.8131L25.2816 58.7633C24.9909 57.7776 24.899 56.7442 25.0113 55.7228C25.1236 54.7014 25.4378 53.7124 25.9357 52.8133Z" fill="#263238"/>
<path d="M24.9612 56.2542L27.74 53.75C28.5525 58.8801 33.8909 68.4665 35.5891 73.3774C33.3952 72.4237 27.5531 68.9982 26.4359 66.8837C25.3187 64.7691 21.0326 58.2145 24.9612 56.2542Z" fill="#263238"/>
<path d="M44.0013 53.7955C43.2389 52.6852 42.1395 51.8491 40.8652 51.4106C39.5909 50.9722 38.2092 50.9545 36.9241 51.3603L28.5794 53.9984C25.2562 55.5935 25.5609 60.7114 27.2997 63.9583C29.2295 67.5664 31.3624 71.3125 33.3937 73.6462C37.4564 78.346 41.8562 76.5359 41.8562 76.5359L44.3466 80.5296L53.9508 81.6254L54.0564 73.4554L44.0663 53.828C44.0054 53.7955 44.0826 53.9254 44.0013 53.7955Z" fill="#FFBE9D"/>
<path d="M31.3089 66.9536C31.4154 67.1291 31.5862 67.2561 31.785 67.3077C31.9838 67.3592 32.1949 67.3312 32.3733 67.2296C32.4623 67.183 32.541 67.1193 32.6052 67.0422C32.6693 66.965 32.7175 66.876 32.7469 66.7801C32.7764 66.6843 32.7866 66.5835 32.7768 66.4837C32.7671 66.3839 32.7377 66.287 32.6902 66.1987C32.5838 66.0232 32.413 65.8961 32.2142 65.8446C32.0154 65.793 31.8043 65.8211 31.6258 65.9227C31.5369 65.9692 31.4581 66.0329 31.394 66.1101C31.3299 66.1872 31.2817 66.2763 31.2522 66.3721C31.2228 66.468 31.2126 66.5687 31.2223 66.6685C31.2321 66.7683 31.2615 66.8652 31.3089 66.9536Z" fill="#263238"/>
<path d="M29.3529 65.5652C29.4869 65.6017 29.7591 64.9158 30.4823 64.4734C31.2054 64.031 31.953 64.0676 31.9773 63.9255C31.9773 63.8646 31.8108 63.7591 31.4776 63.7348C31.0324 63.71 30.5907 63.8249 30.2141 64.0635C29.8469 64.2959 29.5626 64.6382 29.4016 65.0416C29.2635 65.3298 29.2879 65.5327 29.3529 65.5652Z" fill="#263238"/>
<path d="M37.5746 63.0617C37.681 63.2372 37.8518 63.3642 38.0506 63.4158C38.2494 63.4673 38.4605 63.4393 38.639 63.3377C38.7279 63.2911 38.8067 63.2274 38.8708 63.1503C38.9349 63.0732 38.9831 62.9841 39.0126 62.8882C39.042 62.7924 39.0522 62.6916 39.0425 62.5918C39.0327 62.492 39.0033 62.3952 38.9559 62.3068C38.8453 62.1359 38.6746 62.0127 38.4775 61.9616C38.2804 61.9105 38.0712 61.9352 37.8914 62.0308C37.8025 62.0774 37.7238 62.141 37.6596 62.2182C37.5955 62.2953 37.5473 62.3844 37.5178 62.4802C37.4884 62.5761 37.4782 62.6768 37.488 62.7766C37.4977 62.8764 37.5271 62.9733 37.5746 63.0617Z" fill="#263238"/>
<path d="M36.1771 61.3075C36.3111 61.34 36.5833 60.6541 37.3106 60.2117C38.0378 59.7693 38.7812 59.8058 38.8016 59.6638C38.8016 59.6029 38.635 59.4974 38.3019 59.473C37.8567 59.4483 37.4149 59.5632 37.0384 59.8018C36.6699 60.0346 36.3853 60.3786 36.2258 60.784C36.0877 61.1005 36.1121 61.2913 36.1771 61.3075Z" fill="#263238"/>
<path d="M37.4424 68.3411C36.9885 68.4537 36.5513 68.6256 36.1424 68.8524C35.9474 68.9458 35.7361 69.0189 35.6427 68.9133C35.508 68.7337 35.4328 68.5167 35.4273 68.2924C35.3258 67.7404 35.2161 67.1641 35.1023 66.5593C34.627 64.0998 34.1598 62.1273 34.0582 62.1476C33.9567 62.1679 34.2695 64.1769 34.7448 66.6324C34.8708 67.2331 34.9845 67.8094 35.0983 68.3614C35.1168 68.6547 35.2409 68.9315 35.4477 69.1406C35.5145 69.1882 35.5912 69.2202 35.672 69.2342C35.7529 69.2483 35.8359 69.244 35.9149 69.2218C36.0351 69.1879 36.1499 69.1373 36.2561 69.0716C36.68 68.8776 37.0785 68.6322 37.4424 68.3411Z" fill="#263238"/>
<path d="M47.6084 70.4355C47.6084 70.4355 48.1365 75.0624 42.6153 77.7979L41.8516 76.5803C44.3024 75.1033 46.2952 72.9762 47.6084 70.4355Z" fill="#EB996E"/>
<path d="M34.7893 58.5723C34.9803 58.7225 35.6425 58.1868 36.5485 57.7606C37.4544 57.3345 38.2792 57.1518 38.2832 56.9042C38.2832 56.7906 38.0517 56.681 37.6576 56.6607C37.1459 56.6511 36.6392 56.7624 36.1788 56.9854C35.7153 57.2027 35.3091 57.5251 34.9925 57.927C34.7609 58.2598 34.7 58.4993 34.7893 58.5723Z" fill="#263238"/>
<path d="M28.2186 63.2033C28.4461 63.2886 28.8361 62.7975 29.4374 62.4363C30.0387 62.0751 30.6034 61.8681 30.6156 61.6246C30.6156 61.5109 30.4328 61.3973 30.1159 61.377C29.7052 61.3752 29.3033 61.4954 28.9611 61.7224C28.619 61.9493 28.3521 62.2726 28.1942 62.6514C28.0764 62.9477 28.113 63.1587 28.2186 63.2033Z" fill="#263238"/>
<path d="M25.7551 58.3655C25.7015 57.8689 25.7871 57.3673 26.0023 56.9165C26.2175 56.4657 26.5539 56.0835 26.9739 55.8126C27.8239 55.2743 28.8113 54.9924 29.8177 55.0009C34.0348 54.867 38.3209 58.2032 42.5379 58.1504C43.578 58.1504 44.2971 57.1114 45.3127 57.3387C46.3284 57.566 47.3441 58.2478 47.4944 59.2746C47.5955 58.4578 47.5764 57.6305 47.4375 56.8192C47.3664 56.4133 47.2098 56.0272 46.9779 55.6864C46.7461 55.3456 46.4444 55.058 46.0928 54.8426C45.5402 54.5504 44.8536 54.4895 44.4068 54.0553C43.9599 53.621 43.8949 53.0893 43.5942 52.6347C43.2467 52.1935 42.7999 51.8403 42.2901 51.6039C39.7713 50.228 36.9233 49.3391 34.0551 49.465C32.1685 49.5274 30.3345 50.1012 28.7493 51.1249C27.1635 52.1612 26.0019 53.7306 25.4748 55.5488C25.1863 56.6162 24.8775 57.7242 25.7713 58.3695" fill="#263238"/>
<path d="M45.6334 58.024C45.5928 57.8413 47.7013 55.183 49.5335 58.024C51.313 60.8041 48.1401 62.0095 48.0832 61.9324C48.0263 61.8553 45.6334 58.024 45.6334 58.024Z" fill="#FFBE9D"/>
<path d="M48.2769 60.3459C48.2769 60.3459 48.346 60.3459 48.4516 60.3459C48.598 60.322 48.7292 60.2419 48.8173 60.1227C49.0448 59.8264 48.996 59.2054 48.6913 58.694C48.547 58.4506 48.3499 58.2425 48.1144 58.0853C48.0327 58.0142 47.9348 57.9641 47.8294 57.9393C47.7239 57.9146 47.6139 57.9159 47.5091 57.9432C47.4441 57.9644 47.3886 58.0077 47.3522 58.0655C47.3159 58.1234 47.3009 58.1921 47.31 58.2598C47.31 58.3612 47.375 58.4059 47.3628 58.4181C47.3506 58.4302 47.2734 58.4181 47.2206 58.2801C47.1921 58.2014 47.1921 58.1152 47.2206 58.0366C47.2402 57.9839 47.2701 57.9356 47.3084 57.8945C47.3468 57.8534 47.3929 57.8203 47.4441 57.7971C47.5733 57.747 47.7132 57.7308 47.8504 57.75C47.9876 57.7692 48.1177 57.8231 48.2282 57.9067C48.4994 58.0723 48.7255 58.3024 48.8863 58.5763C49.2276 59.1486 49.2723 59.8548 48.9432 60.2282C48.882 60.2972 48.806 60.3516 48.7209 60.3875C48.6359 60.4233 48.5438 60.4396 48.4516 60.4352C48.3297 60.4108 48.2688 60.3581 48.2769 60.3459Z" fill="#EB996E"/>
<path d="M45.8521 55.8894C45.7764 55.8971 45.7002 55.8971 45.6246 55.8894C45.4742 55.8894 45.2508 55.8894 44.9664 55.8894C44.1623 55.8298 43.3669 55.6842 42.5938 55.4551C41.4553 55.1 40.3377 54.6813 39.2462 54.201C37.9194 53.6079 36.5455 53.126 35.1388 52.7602C34.4077 52.598 33.6614 52.5136 32.9125 52.5086C32.2148 52.5158 31.5204 52.6071 30.8446 52.7805C29.6938 53.069 28.6077 53.5716 27.6432 54.2619C26.9912 54.723 26.4037 55.2689 25.8963 55.8853C25.7517 56.0498 25.6161 56.2218 25.49 56.4008C25.4471 56.4649 25.3982 56.5247 25.3438 56.5794C25.3766 56.5095 25.4161 56.4429 25.4616 56.3805C25.5795 56.1967 25.7069 56.0192 25.8435 55.8488C26.3384 55.2114 26.921 54.647 27.5742 54.1726C28.5405 53.4594 29.6359 52.9399 30.7999 52.6425C31.4855 52.461 32.1911 52.3655 32.9003 52.3584C33.6616 52.3592 34.4204 52.4435 35.1632 52.61C36.5794 52.9749 37.9607 53.4638 39.2909 54.0711C40.3776 54.5532 41.4882 54.9799 42.6182 55.3496C43.3819 55.5858 44.1671 55.7462 44.9623 55.8285C45.2467 55.8529 45.4661 55.8529 45.6164 55.861C45.6956 55.8642 45.7744 55.8737 45.8521 55.8894Z" fill="#455A64"/>
<path d="M48.902 60.6417C49.0242 60.532 49.1838 60.473 49.348 60.4767C49.5123 60.4804 49.669 60.5465 49.7862 60.6616C49.9034 60.7767 49.9723 60.932 49.9789 61.0961C49.9855 61.2601 49.9292 61.4205 49.8216 61.5445C49.714 61.6686 49.5631 61.747 49.3996 61.7638C49.2362 61.7806 49.0724 61.7346 48.9418 61.635C48.8111 61.5355 48.7233 61.3899 48.6963 61.228C48.6693 61.0661 48.705 60.8999 48.7963 60.7634" fill="white"/>
<path d="M48.7962 60.7643C48.7429 60.9389 48.7429 61.1255 48.7962 61.3001C48.8237 61.3887 48.8731 61.4691 48.9398 61.5336C49.0066 61.5982 49.0885 61.6449 49.1781 61.6694C49.2872 61.6996 49.4025 61.6993 49.5114 61.6686C49.6203 61.6378 49.7186 61.5777 49.7956 61.4949C49.8648 61.4062 49.9082 61.3002 49.9211 61.1885C49.934 61.0769 49.9159 60.9638 49.8688 60.8617C49.8306 60.7766 49.7714 60.7026 49.6968 60.6465C49.6222 60.5905 49.5346 60.5542 49.4422 60.5411C49.2612 60.5197 49.078 60.5552 48.9181 60.6426C48.9181 60.6426 48.9425 60.5857 49.0319 60.5289C49.1547 60.4575 49.2964 60.4249 49.4381 60.4356C49.5522 60.4443 49.662 60.4826 49.7568 60.5466C49.8516 60.6107 49.928 60.6983 49.9785 60.8009C50.0443 60.9265 50.0711 61.069 50.0551 61.2099C50.0392 61.3509 49.9815 61.4839 49.8892 61.5917C49.797 61.6996 49.6746 61.7774 49.5377 61.8151C49.4008 61.8528 49.2558 61.8487 49.1213 61.8033C49.0123 61.7691 48.9139 61.7074 48.8356 61.6243C48.7574 61.5411 48.7018 61.4393 48.6744 61.3285C48.6373 61.1844 48.6472 61.0322 48.7028 60.8942C48.7353 60.8008 48.7881 60.7603 48.7962 60.7643Z" fill="#263238"/>
<path d="M45.6424 57.1233C46.1625 57.8579 46.6987 58.6452 46.7678 59.5584C46.8369 60.4716 46.2356 61.4741 45.3296 61.5106C44.5943 61.535 43.9971 60.9424 43.5217 60.3823C42.1445 58.7589 40.9013 57.034 39.5078 55.4268L45.6424 57.1233Z" fill="#263238"/>
<path d="M25.6172 56.5995C25.6172 56.5995 25.8366 56.4007 26.2753 56.1085C26.9038 55.7033 27.6068 55.4273 28.3432 55.2967C28.8492 55.2006 29.364 55.1584 29.8789 55.1709C30.4709 55.1924 31.061 55.2493 31.6462 55.3414C32.9924 55.5409 34.31 55.9006 35.5707 56.4129C36.241 56.6929 36.8748 57.0095 37.5127 57.2733C38.1246 57.5361 38.7655 57.7255 39.4221 57.8374C40.5342 58.0013 41.6615 58.038 42.7819 57.947C43.7326 57.8821 44.5004 57.7725 45.0286 57.6994L45.6339 57.6061C45.7058 57.5993 45.7767 57.5843 45.8452 57.5614C45.7737 57.5519 45.7013 57.5519 45.6299 57.5614L45.0164 57.6223C44.4883 57.671 43.7204 57.7603 42.7738 57.809C41.6639 57.8808 40.5494 57.8305 39.4505 57.6588C38.8074 57.5455 38.1801 57.3561 37.5817 57.0947C36.952 56.8349 36.3182 56.5143 35.6438 56.2343C34.3703 55.715 33.037 55.3564 31.6746 55.1669C31.0812 55.078 30.4828 55.0265 29.883 55.0126C29.3578 55.0043 28.8333 55.0533 28.3189 55.1587C27.5701 55.3057 26.8603 55.6071 26.2347 56.0435C26.0668 56.1673 25.908 56.303 25.7594 56.4494C25.7073 56.4948 25.6597 56.5451 25.6172 56.5995Z" fill="#455A64"/>
<path d="M44.6396 55.3415C44.757 55.3559 44.8756 55.3559 44.993 55.3415L45.964 55.3131H46.289C46.4172 55.3097 46.5432 55.2792 46.6587 55.2238C46.7288 55.1883 46.7857 55.1314 46.8212 55.0614C46.8392 55.0219 46.8485 54.979 46.8485 54.9356C46.8485 54.8922 46.8392 54.8493 46.8212 54.8098C46.7348 54.6844 46.6112 54.5893 46.4678 54.5379L44.8224 53.7262L44.7777 53.9007C45.174 53.9309 45.5726 53.8925 45.9559 53.787C46.3431 53.6845 46.709 53.5141 47.0365 53.2838C47.1218 53.2274 47.1984 53.1591 47.2641 53.0808C47.3028 53.0369 47.3315 52.9852 47.3484 52.9291C47.3652 52.8731 47.3697 52.8141 47.3616 52.7562C47.3489 52.6986 47.3217 52.6453 47.2826 52.6013C47.2435 52.5572 47.1938 52.5239 47.1381 52.5045C47.0524 52.4674 46.9623 52.4415 46.87 52.4274C46.277 52.2979 45.7034 52.0919 45.1637 51.8146C44.6717 51.5455 44.2005 51.2402 43.7539 50.9014C43.8472 51.0236 43.9565 51.1329 44.0789 51.2261C44.3953 51.4955 44.7384 51.7322 45.1027 51.9323C45.6465 52.2311 46.2288 52.4538 46.8334 52.5938C47 52.6263 47.1747 52.675 47.1869 52.7886C47.199 52.9023 47.0772 53.0403 46.9309 53.1336C46.62 53.3503 46.2735 53.511 45.9071 53.6085C45.5438 53.7089 45.1658 53.746 44.7899 53.718L44.3024 53.6815L44.7452 53.8926L46.3987 54.6759C46.5125 54.7144 46.6136 54.7832 46.6912 54.8748C46.7011 54.8948 46.7066 54.9167 46.7074 54.9391C46.7082 54.9614 46.7042 54.9837 46.6958 55.0044C46.6874 55.0251 46.6746 55.0438 46.6584 55.0592C46.6422 55.0746 46.6229 55.0865 46.6018 55.0939C46.4 55.1719 46.1843 55.2078 45.9681 55.1994L45.0011 55.2806C44.8788 55.2879 44.7576 55.3083 44.6396 55.3415Z" fill="#455A64"/>
<path d="M41.0175 67.9676C40.8332 67.7862 40.5906 67.6757 40.3327 67.6556C40.0747 67.6356 39.8179 67.7073 39.6078 67.8581C39.4631 67.9792 39.3505 68.134 39.2796 68.3087C39.2088 68.4835 39.182 68.673 39.2015 68.8605C39.223 69.0493 39.2818 69.2319 39.3746 69.3977C39.4673 69.5636 39.5922 69.7093 39.7418 69.8265L39.7987 69.8833C40.0485 69.9524 40.3137 69.9422 40.5575 69.8542C40.8013 69.7663 41.0117 69.6048 41.1597 69.3922C41.2968 69.1724 41.3571 68.9134 41.3314 68.6557C41.3057 68.3981 41.1953 68.1561 41.0175 67.9676Z" fill="#EB996E"/>
<path d="M39.2545 70.2205C39.1854 70.111 39.933 69.697 40.1077 68.7594C40.2823 67.8219 39.7583 67.0751 39.8598 67.0102C39.9614 66.9452 40.1036 67.1076 40.3027 67.4404C40.5511 67.8755 40.6388 68.384 40.5505 68.8771C40.4646 69.3509 40.198 69.7728 39.807 70.0541C39.5104 70.2571 39.2748 70.2733 39.2545 70.2205Z" fill="#263238"/>
<path d="M40.6126 76.8718C40.4681 76.9265 40.3159 76.958 40.1616 76.9651C39.7447 77.0161 39.3231 77.0161 38.9062 76.9651C37.5248 76.7647 36.2203 76.2048 35.1239 75.3417C34.0525 74.4756 33.0968 73.4758 32.28 72.3667C31.9591 71.9609 31.7113 71.6037 31.5406 71.3602C31.4465 71.2403 31.3648 71.1111 31.2969 70.9746C31.2969 70.9746 31.4188 71.0842 31.6097 71.3115L32.3979 72.2734C33.2431 73.3442 34.2066 74.3163 35.2702 75.1712C36.3354 76.0107 37.5912 76.5752 38.9266 76.815C39.4858 76.8832 40.05 76.9022 40.6126 76.8718Z" fill="#EB996E"/>
<path d="M131.491 76.2554C131.491 76.2554 129.618 61.4496 129.602 61.06C129.585 60.6704 132.283 46.0959 132.283 46.0959C132.283 46.0959 134.217 41.9358 136.114 42.0008C138.011 42.0657 137.41 43.6486 137.394 45.8727C137.378 48.0968 135.151 55.313 135.956 58.6126C136.76 61.9123 139.376 75.9104 139.376 75.9104L131.491 76.2554Z" fill="#FFBE9D"/>
<path d="M132.081 93.3749L130.695 76.0812L148.794 76L150.281 94.7914L141.059 98.436L132.081 93.3749Z" fill="#263238"/>
<path d="M83.3249 85.3387C83.3249 85.3387 92.023 82.2663 96.5854 82.5707C101.148 82.8751 114.985 89.446 114.985 89.446L137.635 94.1134L134.864 79.1817L153.552 78.9707C153.552 78.9707 156.445 100.006 155.941 101.93C155.706 102.896 155.224 103.785 154.542 104.509C153.859 105.232 153 105.766 152.049 106.058L74.6836 105.246L83.3249 85.3387Z" fill="#263238"/>
<path d="M107.074 85.9427C107.06 85.9831 107.041 86.0213 107.017 86.0564L106.822 86.3608L106.066 87.5134L103.324 91.6207L103.299 91.6532H103.263L95.292 92.68L90.2909 93.3091H90.1893V93.2036C90.0796 90.3626 89.9861 87.9274 89.9171 86.166C89.8927 85.3136 89.8724 84.6318 89.8561 84.1367C89.8561 83.9134 89.8561 83.7308 89.8561 83.5968C89.85 83.5348 89.85 83.4722 89.8561 83.4102C89.8692 83.4716 89.8774 83.5341 89.8805 83.5968C89.8805 83.7348 89.9049 83.9134 89.9212 84.1326C89.9496 84.6277 89.9862 85.3055 90.0349 86.1619C90.1202 87.9112 90.2421 90.3504 90.3802 93.1955L90.2705 93.1062L95.2717 92.4649L103.243 91.4665L103.178 91.5396L105.981 87.4809L106.773 86.3526L106.988 86.0604C107.012 86.0178 107.04 85.9782 107.074 85.9427Z" fill="#455A64"/>
<path d="M83.4202 100.283C83.4202 100.336 83.2252 100.429 82.9612 100.486C82.6971 100.543 82.4736 100.543 82.4615 100.486C82.4493 100.429 82.6524 100.34 82.9165 100.283C83.1805 100.226 83.4081 100.226 83.4202 100.283Z" fill="#455A64"/>
<path d="M87.2098 99.5115C86.9219 99.6676 86.6055 99.7643 86.2794 99.7956C85.9665 99.8907 85.6372 99.9197 85.3125 99.8808C85.5989 99.7212 85.9161 99.6244 86.2429 99.5967C86.5553 99.4991 86.8851 99.4701 87.2098 99.5115Z" fill="#455A64"/>
<path d="M91.0348 98.9355C90.7382 99.0755 90.416 99.1528 90.0882 99.1628C89.7697 99.238 89.439 99.2463 89.1172 99.1871C89.4148 99.0501 89.7364 98.9729 90.0638 98.9598C90.3823 98.8846 90.7129 98.8763 91.0348 98.9355Z" fill="#455A64"/>
<path d="M94.8946 98.7193C94.2626 98.8747 93.6045 98.8927 92.9648 98.7721C93.5976 98.6221 94.2546 98.6042 94.8946 98.7193Z" fill="#455A64"/>
<path d="M98.7538 98.9833C98.4337 99.0513 98.1029 99.0513 97.7829 98.9833C97.4548 98.9865 97.1297 98.9215 96.8281 98.7926C97.1497 98.7254 97.4816 98.7254 97.8032 98.7926C98.1299 98.7895 98.4536 98.8545 98.7538 98.9833Z" fill="#455A64"/>
<path d="M102.589 99.491C101.939 99.5339 101.288 99.4413 100.676 99.2191C100.998 99.1629 101.329 99.1754 101.647 99.2557C101.974 99.2664 102.295 99.3466 102.589 99.491Z" fill="#455A64"/>
<path d="M106.425 100.108C106.101 100.153 105.77 100.132 105.454 100.047C105.126 100.027 104.806 99.939 104.516 99.7869C104.84 99.7418 105.17 99.7625 105.487 99.8478C105.814 99.8669 106.134 99.9555 106.425 100.108Z" fill="#455A64"/>
<path d="M110.226 100.782C109.9 100.821 109.57 100.797 109.255 100.709C108.928 100.684 108.609 100.591 108.32 100.437C108.646 100.395 108.976 100.42 109.291 100.51C109.618 100.534 109.937 100.626 110.226 100.782Z" fill="#455A64"/>
<path d="M114.034 101.463C113.709 101.508 113.379 101.484 113.063 101.394C112.736 101.372 112.418 101.28 112.129 101.126C112.454 101.082 112.785 101.105 113.1 101.195C113.426 101.22 113.744 101.311 114.034 101.463Z" fill="#455A64"/>
<path d="M117.851 102.093C117.527 102.14 117.197 102.122 116.88 102.04C116.552 102.023 116.231 101.937 115.938 101.788C116.263 101.74 116.594 101.758 116.913 101.841C117.24 101.858 117.559 101.944 117.851 102.093Z" fill="#455A64"/>
<path d="M121.687 102.612C121.366 102.678 121.034 102.678 120.712 102.612C120.384 102.603 120.062 102.525 119.766 102.385C120.089 102.325 120.421 102.334 120.741 102.409C121.067 102.413 121.388 102.482 121.687 102.612Z" fill="#455A64"/>
<path d="M125.519 103.01C125.198 103.076 124.866 103.076 124.544 103.01C124.217 103.011 123.894 102.945 123.594 102.815C123.914 102.747 124.245 102.747 124.565 102.815C124.893 102.813 125.218 102.879 125.519 103.01Z" fill="#455A64"/>
<path d="M129.395 103.274C128.749 103.374 128.09 103.333 127.461 103.156C127.78 103.079 128.111 103.065 128.436 103.116C128.763 103.103 129.089 103.157 129.395 103.274Z" fill="#455A64"/>
<path d="M133.262 103.428C132.947 103.519 132.616 103.542 132.291 103.497C131.964 103.519 131.636 103.474 131.328 103.363C131.97 103.249 132.629 103.271 133.262 103.428Z" fill="#455A64"/>
<path d="M137.129 103.477C136.817 103.575 136.488 103.608 136.162 103.575C135.836 103.609 135.507 103.574 135.195 103.473C135.507 103.373 135.836 103.338 136.162 103.372C136.488 103.339 136.818 103.375 137.129 103.477Z" fill="#455A64"/>
<path d="M140.996 103.404C140.362 103.553 139.703 103.567 139.062 103.445C139.373 103.339 139.702 103.297 140.029 103.323C140.354 103.282 140.683 103.31 140.996 103.404Z" fill="#455A64"/>
<path d="M144.867 103.407C144.228 103.534 143.569 103.526 142.934 103.383C143.573 103.255 144.232 103.264 144.867 103.407Z" fill="#455A64"/>
<path d="M148.734 103.31C148.439 103.459 148.11 103.53 147.78 103.517C147.454 103.573 147.121 103.552 146.805 103.456C147.113 103.35 147.438 103.302 147.763 103.314C148.085 103.261 148.413 103.26 148.734 103.31Z" fill="#455A64"/>
<path d="M151.882 101.334C151.939 101.358 151.761 101.784 151.387 102.178C151.013 102.572 150.574 102.783 150.574 102.73C150.574 102.677 150.899 102.446 151.236 102.04C151.574 101.634 151.834 101.314 151.882 101.334Z" fill="#455A64"/>
<path d="M151.784 97.5186C151.922 97.8166 151.995 98.1401 152 98.4683C152.065 98.7883 152.065 99.1182 152 99.4383C151.861 99.1419 151.786 98.8197 151.78 98.4926C151.718 98.1708 151.719 97.8398 151.784 97.5186Z" fill="#455A64"/>
<path d="M151.395 93.6758C151.592 94.2967 151.656 94.9523 151.582 95.5996C151.453 95.2982 151.386 94.9737 151.387 94.6458C151.321 94.3255 151.324 93.995 151.395 93.6758Z" fill="#455A64"/>
<path d="M151.053 89.8242C151.241 90.4485 151.297 91.1048 151.219 91.7521C151.026 91.1288 150.97 90.4713 151.053 89.8242Z" fill="#455A64"/>
<path d="M150.709 85.9717C150.897 86.596 150.954 87.2523 150.876 87.8995C150.683 87.2762 150.626 86.6188 150.709 85.9717Z" fill="#455A64"/>
<path d="M150.351 82.125C150.552 82.7451 150.617 83.4013 150.542 84.0488C150.413 83.7475 150.346 83.4229 150.347 83.095C150.284 82.7746 150.285 82.4449 150.351 82.125Z" fill="#455A64"/>
<path d="M150.031 79.2227C150.084 79.2227 150.157 79.4297 150.189 79.6975C150.222 79.9654 150.189 80.1886 150.145 80.1967C150.1 80.2048 150.015 79.9897 149.986 79.7219C149.958 79.454 149.974 79.2308 150.031 79.2227Z" fill="#455A64"/>
<path d="M85.8532 84.3887C85.8489 84.4622 85.8338 84.5346 85.8085 84.6038C85.7679 84.7621 85.7151 84.9609 85.6501 85.2045C85.5038 85.7199 85.3007 86.4748 85.061 87.4042C84.5775 89.2671 83.9763 91.8687 83.4725 94.7503C82.9687 97.6319 82.66 100.29 82.4975 102.206C82.4121 103.164 82.3512 103.943 82.3146 104.479C82.2903 104.726 82.274 104.933 82.2618 105.096C82.2622 105.169 82.2512 105.241 82.2293 105.311C82.2204 105.239 82.2204 105.167 82.2293 105.096C82.2293 104.929 82.2293 104.726 82.2293 104.475C82.2293 103.935 82.2821 103.156 82.3512 102.194C82.4853 100.27 82.7575 97.6197 83.2653 94.7178C83.7731 91.8159 84.3988 89.2225 84.9188 87.3677C85.1788 86.4383 85.4023 85.6915 85.5688 85.1801L85.7679 84.5916C85.7867 84.5203 85.8154 84.452 85.8532 84.3887Z" fill="#455A64"/>
<path d="M93.3571 98.3633C93.4126 98.4754 93.4483 98.5962 93.4627 98.7204C93.5275 99.0533 93.5588 99.3919 93.5561 99.731C93.555 100.862 93.2265 101.968 92.6102 102.917C91.9938 103.865 91.116 104.615 90.0826 105.076C89.7729 105.217 89.4505 105.327 89.1197 105.405C88.9998 105.441 88.875 105.457 88.75 105.454C88.75 105.417 89.266 105.324 90.0216 104.946C91.0095 104.467 91.8481 103.728 92.4472 102.808C93.0463 101.889 93.3833 100.823 93.4221 99.727C93.4464 98.8868 93.3205 98.3673 93.3571 98.3633Z" fill="#455A64"/>
<path d="M115.129 95.9197C115.018 95.5836 114.935 95.2388 114.881 94.8888C114.747 94.2475 114.556 93.3668 114.317 92.3968C114.077 91.4268 113.833 90.5583 113.658 89.9292C113.542 89.5951 113.455 89.2515 113.398 88.9023C113.568 89.216 113.704 89.5465 113.805 89.8886C114.016 90.5096 114.28 91.374 114.524 92.3481C114.768 93.3222 114.93 94.211 115.032 94.8604C115.103 95.2089 115.135 95.5641 115.129 95.9197Z" fill="#455A64"/>
<path d="M148.632 101.712C148.393 101.071 148.093 100.454 147.739 99.869C146.815 98.5003 145.571 97.3775 144.115 96.5978C142.657 95.8154 141.125 95.1817 139.54 94.7064L138.114 94.2722C137.933 94.2301 137.756 94.1717 137.586 94.0977C137.771 94.1125 137.955 94.1451 138.134 94.1951C138.484 94.2722 138.983 94.3939 139.597 94.5685C141.2 95.0038 142.747 95.6221 144.208 96.4111C145.699 97.2015 146.959 98.3651 147.864 99.7878C148.131 100.22 148.345 100.682 148.502 101.164C148.546 101.297 148.583 101.432 148.612 101.57C148.634 101.648 148.64 101.695 148.632 101.712Z" fill="#455A64"/>
<path d="M153.552 78.9585C153.521 78.9635 153.489 78.9635 153.458 78.9585H153.186L152.13 79.0031L148.193 79.1452L134.786 79.551L134.88 79.4333C135.197 81.0568 135.526 82.733 135.867 84.4619C136.533 87.8874 137.167 91.1424 137.736 94.0565L137.764 94.1945L137.626 94.1661L127.648 92.0718L124.804 91.459L124.053 91.2926L123.862 91.2439L123.797 91.2236H123.866L124.061 91.2561L124.817 91.3981L127.66 91.9582L137.655 93.9875L137.545 94.0971C136.972 91.183 136.326 87.9321 135.66 84.5066C135.319 82.7736 134.99 81.0892 134.677 79.478L134.652 79.3603H134.77L148.177 79.0275L152.114 78.9463H153.174H153.54L153.552 78.9585Z" fill="#455A64"/>
<path d="M91.9756 82.9805C92.0284 82.9805 92.2316 85.2005 92.4266 87.9482C92.6216 90.6959 92.7313 92.9241 92.6744 92.9281C92.6175 92.9322 92.4144 90.7081 92.2235 87.9604C92.0325 85.2127 91.9187 82.9845 91.9756 82.9805Z" fill="#455A64"/>
<path d="M52.0995 69.6607C53.9346 69.2845 55.8357 69.3851 57.6207 69.953C63.2353 71.8361 78.0437 83.2003 78.0437 83.2003C78.0437 83.2003 85.3565 81.9137 86.0024 84.3773L76.8127 105.312C76.8127 105.312 64.5069 105.368 60.883 104.971C57.2591 104.573 48.1181 99.7147 46.5824 94.8241C45.4083 91.0861 44.3398 80.5784 44.3398 80.5784L52.0995 69.6607Z" fill="#5277A0"/>
<g opacity="0.3">
<path d="M67.0171 93.9757C66.8109 92.2174 66.4354 90.4831 65.8958 88.7969C65.8958 90.3797 65.9202 91.991 65.4367 93.4968C64.9533 95.0025 63.9011 95.7615 62.3938 96.2404C62.0607 96.3459 61.691 97.0521 61.4513 97.3159C61.1964 97.6583 61.0829 98.0855 61.1344 98.5091C61.1344 100.536 61.1249 102.565 61.1059 104.597L60.8906 104.97C62.0459 104.169 62.8499 102.957 63.1373 101.582C63.3201 100.685 63.3038 99.6861 63.8767 98.9718C64.5064 98.1926 65.6561 98.014 66.3508 97.2956C67.1552 96.4555 67.1431 95.1405 67.0171 93.9757Z" fill="black"/>
</g>
<path d="M71.3516 94.0897C71.4027 93.9338 71.4708 93.7841 71.5547 93.6432C71.6969 93.3632 71.9122 92.9614 72.1844 92.4662C72.7288 91.48 73.5088 90.1366 74.4148 88.6755C75.3208 87.2144 76.1861 85.9197 76.828 84.9984C77.149 84.5357 77.4171 84.1623 77.604 83.9107C77.6923 83.7724 77.7974 83.6457 77.9168 83.5332C77.8485 83.6822 77.7669 83.8249 77.6731 83.9594L76.954 85.0795C76.3405 86.0252 75.4995 87.3321 74.5936 88.7891C73.6876 90.2462 72.8913 91.5774 72.3144 92.5433C72.0422 92.9938 71.8106 93.355 71.6278 93.6838C71.5509 93.8288 71.4583 93.9649 71.3516 94.0897Z" fill="#263238"/>
<path d="M70.8047 93.4717C70.8747 93.1376 70.9852 92.8132 71.1338 92.5058C71.4511 91.7495 71.8175 91.0146 72.2307 90.306C72.6442 89.6017 73.1014 88.9239 73.5998 88.2767C73.7936 87.9953 74.0214 87.7391 74.2783 87.5137C74.1172 87.813 73.931 88.0981 73.7217 88.366C73.3682 88.8814 72.9091 89.6039 72.4135 90.4237C71.9179 91.2435 71.5441 92.0187 71.2719 92.5788C71.1427 92.8896 70.9864 93.1884 70.8047 93.4717Z" fill="#263238"/>
<g opacity="0.3">
<path d="M77.7328 83.8281C75.1774 86.3891 72.9186 88.8892 71.1838 92.4446C70.8507 93.1223 70.4444 93.8326 70.5703 94.5753C70.572 94.6199 70.5844 94.6634 70.6063 94.7022C70.6282 94.741 70.659 94.774 70.6963 94.7986C70.8385 94.8675 71.0538 94.693 71.2407 94.3034C72.9836 90.6912 75.5349 87.2901 77.741 83.8281" fill="black"/>
</g>
<path d="M51.7635 98.4809C51.6741 98.7894 51.4791 101.683 51.4791 101.683L29.236 99.8811L27.6719 106.091C27.6719 106.091 48.3468 111.521 52.511 111.578C54.2299 111.656 55.9306 111.198 57.3766 110.266C58.8226 109.334 59.9421 107.976 60.5794 106.379L62.822 96.2324L51.7635 98.4809Z" fill="#FFBE9D"/>
<path d="M23.7222 97.7373L30.6287 99.9939L27.6711 106.082L22.9706 106.289C22.9706 106.289 17.8354 106.005 17.6648 106.005C17.157 106.005 16.4704 105.359 16.7222 104.917L16.9701 104.479C16.9701 104.479 15.2434 104.337 15.2394 103.103C15.2394 103.103 14.0206 103.001 14.0571 101.865C14.0937 100.729 15.0403 100.96 15.0403 100.96L17.1245 100.651L11.7658 97.2219C11.7415 97.1088 11.7453 96.9915 11.7769 96.8803C11.8086 96.769 11.8671 96.6673 11.9473 96.5839C12.0276 96.5006 12.1271 96.4381 12.2371 96.4022C12.3471 96.3662 12.4643 96.3578 12.5783 96.3777C13.5493 96.4426 19.1477 98.89 19.5377 99.1416C19.9277 99.3932 21.9346 98.9468 22.2718 98.6099C22.7244 98.2706 23.2104 97.9783 23.7222 97.7373Z" fill="#FFBE9D"/>
<path d="M53.1232 105.287C52.4375 104.173 51.8749 102.987 51.4453 101.752C52.129 102.867 52.6914 104.052 53.1232 105.287Z" fill="#EB996E"/>
<path d="M61.2756 73.0412C58.7405 70.606 54.1781 71.2919 52.6465 74.4658C51.5943 76.6331 51.1027 80.5537 50.8468 83.139C50.3633 88.0134 49.957 98.8458 49.957 98.8458L66.4596 95.4812C66.4596 95.4812 66.2727 83.3054 64.6882 78.7841C64.0098 76.9293 62.5919 74.3156 61.2756 73.0412Z" fill="#5277A0"/>
<path d="M61.2728 73.0413C61.6997 73.4364 62.08 73.8789 62.4063 74.3603C63.3448 75.6889 64.1093 77.1319 64.6814 78.6543C65.368 80.639 65.7092 83.1472 66.0017 85.9882C66.2943 88.8292 66.4568 92.0315 66.538 95.4894V95.5706H66.4568L52.729 98.3751L49.9583 98.9433L49.8242 98.9677V98.8337C50.0274 93.9634 50.2508 89.3772 50.5596 85.2171C50.7221 83.135 50.9293 81.1585 51.2299 79.3443C51.4549 77.6416 51.91 75.9773 52.5828 74.3968C52.9081 73.7627 53.36 73.2019 53.9106 72.7489C54.4612 72.2958 55.0988 71.9603 55.7841 71.7628C56.8109 71.4541 57.9029 71.433 58.9408 71.7019C59.5902 71.8767 60.2018 72.1698 60.7447 72.5664C60.9234 72.7084 61.0494 72.8302 61.1509 72.9032L61.2769 73.025L61.1347 72.9195C61.0412 72.8505 60.9153 72.7328 60.7284 72.5989C60.1804 72.2255 59.5714 71.9508 58.9286 71.7871C57.905 71.5354 56.8322 71.5663 55.8248 71.8764C55.1585 72.0748 54.5397 72.4068 54.006 72.852C53.4724 73.2971 53.0351 73.8463 52.7209 74.4658C52.0648 76.0368 51.6221 77.6884 51.4046 79.3767C51.1121 81.1991 50.913 83.1634 50.7586 85.2374C50.4621 89.3934 50.2427 93.9918 50.0436 98.85L49.9136 98.7444L52.6884 98.1762L66.4202 95.388L66.3389 95.4854C66.2699 92.0315 66.0911 88.8374 65.8352 85.9963C65.5792 83.1553 65.2339 80.6511 64.5676 78.6908C64.009 77.1728 63.2654 75.7292 62.3535 74.3928C62.1119 74.0371 61.8502 73.6956 61.5694 73.37C61.4759 73.2604 61.3947 73.1833 61.3459 73.1265L61.2728 73.0413Z" fill="#263238"/>
<path d="M135.919 79.3643L129.557 62.517C129.557 62.517 125.445 62.2166 125.124 60.3862C124.803 58.5558 127.505 54.2009 127.505 54.2009C127.505 54.2009 128.63 48.7705 129.016 46.4895C129.402 44.2086 131.153 42.0616 132.201 42.1752C133.249 42.2889 132.738 43.3563 132.608 44.4846C132.478 45.6129 131.722 46.2907 132.811 49.1317C133.899 51.9727 134.968 56.1855 135.533 58.085C136.097 59.9844 147.221 79.0639 147.221 79.0639L135.919 79.3643Z" fill="#FFBE9D"/>
<path d="M135.918 79.3639H136.117L136.694 79.3396L138.92 79.2625L147.236 79.0068L147.184 79.1001C145.014 75.3865 142.276 70.6826 139.229 65.2684C138.473 63.9169 137.689 62.5207 136.913 61.0718C136.527 60.3453 136.137 59.6107 135.771 58.8517C135.582 58.4621 135.432 58.0541 135.325 57.6341C135.207 57.2283 135.093 56.8224 134.975 56.4166C134.512 54.7606 134.041 53.0682 133.5 51.3717C133.228 50.5194 132.928 49.6793 132.611 48.8229C132.269 47.958 132.13 47.0264 132.204 46.0996C132.268 45.7066 132.355 45.3176 132.464 44.9348C132.508 44.7462 132.539 44.5551 132.558 44.3625C132.582 44.1636 132.615 43.9566 132.651 43.778C132.746 43.414 132.776 43.0363 132.741 42.6619C132.672 42.3251 132.225 42.2195 131.904 42.3129C131.555 42.4341 131.24 42.6373 130.986 42.9054C130.717 43.1684 130.475 43.4565 130.263 43.7659C129.843 44.3821 129.518 45.058 129.3 45.7708C129.105 46.477 128.995 47.2157 128.845 47.9341C128.694 48.6524 128.56 49.3667 128.438 50.0729C128.168 51.4826 127.897 52.8612 127.626 54.2087C127.074 55.1203 126.574 56.0621 126.127 57.0294C125.911 57.4952 125.719 57.9721 125.554 58.458C125.381 58.9252 125.274 59.4143 125.237 59.911C125.217 60.1461 125.247 60.3828 125.326 60.605C125.42 60.8187 125.559 61.0098 125.733 61.1651C126.093 61.4678 126.506 61.7016 126.951 61.8551C127.811 62.1572 128.705 62.3495 129.612 62.4274H129.661V62.472L134.264 74.7615C134.809 76.2226 135.231 77.363 135.52 78.1464L135.849 79.0311C135.922 79.2341 135.954 79.3437 135.954 79.3437C135.954 79.3437 135.91 79.2463 135.832 79.0514L135.495 78.1788L134.207 74.8224C133.09 71.8961 131.485 67.6833 129.523 62.5248L129.588 62.5735C128.664 62.4973 127.754 62.305 126.878 62.0012C126.416 61.8388 125.986 61.594 125.611 61.2788C125.401 61.1255 125.23 60.9254 125.111 60.6943C125.021 60.4505 124.985 60.1903 125.005 59.9313C125.044 59.4199 125.152 58.916 125.326 58.4337C125.494 57.9414 125.687 57.4578 125.903 56.9848C126.352 56.0103 126.855 55.0618 127.411 54.1437V54.1721C127.681 52.8193 127.952 51.4407 128.223 50.0364C128.361 49.3302 128.503 48.62 128.629 47.9016C128.702 47.5404 128.772 47.1792 128.845 46.8139C128.908 46.4446 128.991 46.0788 129.092 45.7181C129.313 44.9861 129.645 44.2922 130.076 43.6603C130.294 43.3385 130.545 43.0393 130.823 42.7674C131.1 42.4755 131.445 42.2566 131.827 42.1302C132.03 42.0634 132.249 42.0634 132.452 42.1302C132.561 42.1626 132.658 42.2227 132.736 42.3046C132.814 42.3865 132.869 42.4873 132.895 42.597C132.944 42.9976 132.917 43.404 132.814 43.7943C132.777 43.985 132.745 44.1798 132.72 44.3706C132.701 44.5688 132.669 44.7654 132.623 44.9591C132.515 45.3353 132.43 45.7174 132.367 46.1036C132.298 47.0038 132.437 47.9077 132.773 48.7458C133.086 49.59 133.395 50.4463 133.663 51.2986C134.207 52.9992 134.675 54.6917 135.138 56.3476C135.251 56.7534 135.369 57.1593 135.483 57.5651C135.588 57.9697 135.734 58.3627 135.918 58.7381C136.279 59.493 136.669 60.2276 137.055 60.9541C137.827 62.399 138.607 63.7951 139.363 65.1507C142.394 70.5689 145.12 75.2972 147.269 79.0068L147.322 79.0961H147.22L138.871 79.2868L136.653 79.3315H136.088L135.918 79.3639Z" fill="#EB996E"/>
<path d="M19.5186 102.604C18.8097 102.851 18.0702 103.002 17.3207 103.05C16.5784 103.165 15.8238 103.177 15.0781 103.086C15.8142 102.967 16.5559 102.884 17.3004 102.839C18.0354 102.723 18.7757 102.645 19.5186 102.604Z" fill="#EB996E"/>
<path d="M20.0175 104.28C18.9465 104.582 17.8235 104.654 16.7227 104.491C17.2658 104.395 17.8164 104.347 18.368 104.349C18.915 104.28 19.4667 104.257 20.0175 104.28Z" fill="#EB996E"/>
<path d="M22.0966 104.78C21.9566 104.862 21.7981 104.906 21.6361 104.91C21.474 104.913 21.3137 104.876 21.1703 104.8C20.6625 104.605 20.4472 104.187 20.5 104.167C20.5528 104.147 20.8047 104.439 21.2475 104.601C21.6903 104.764 22.0844 104.719 22.0966 104.78Z" fill="#EB996E"/>
<path d="M21.7211 102.851C21.5883 102.92 21.4422 102.959 21.2929 102.966C21.1436 102.973 20.9945 102.947 20.8558 102.892C20.3764 102.758 20.0961 102.449 20.1367 102.413C20.1773 102.376 20.4861 102.571 20.9127 102.685C21.3393 102.798 21.713 102.79 21.7211 102.851Z" fill="#EB996E"/>
<path d="M22.2656 98.6267C22.2656 98.6267 22.2941 98.6023 22.355 98.5577L22.6272 98.3791L23.6957 97.6973H23.716L30.0741 99.7266H30.0537L38.1303 100.417C43.6352 100.9 48.5104 101.342 51.4599 101.634L51.3908 101.691C51.4884 100.729 51.5615 99.962 51.6184 99.4141C51.6468 99.1665 51.6671 98.9676 51.6834 98.8134C51.6877 98.7432 51.7 98.6738 51.7199 98.6064C51.7253 98.6766 51.7253 98.7472 51.7199 98.8174C51.7199 98.9717 51.6955 99.1705 51.6834 99.4222C51.6427 99.9701 51.5859 100.737 51.5168 101.703V101.764H51.4518C48.4982 101.533 43.623 101.127 38.1141 100.644L30.0456 99.9051L23.716 97.7866H23.7526L22.6516 98.44L22.3672 98.6023C22.3345 98.6148 22.3004 98.623 22.2656 98.6267Z" fill="#EB996E"/>
<path d="M43.6065 79.6123L42.1602 81.6619L40.5839 84.649L36.6797 90.2783L45.4672 98.1926L48.7539 95.6073L45.2438 81.4306L43.6065 79.6123Z" fill="#5277A0"/>
<path d="M47.6302 96.8898C47.531 96.7653 47.4478 96.629 47.3824 96.4839C47.2361 96.2201 47.037 95.8305 46.8014 95.3475C46.3261 94.3734 45.7126 93.0138 45.087 91.4878C44.4613 89.9617 43.925 88.5696 43.5594 87.555C43.3766 87.0436 43.2303 86.6337 43.1531 86.3374C43.0923 86.192 43.0513 86.0391 43.0312 85.8828C43.1119 86.0178 43.1786 86.1605 43.2303 86.309L43.6975 87.4819C44.1038 88.529 44.6726 89.8887 45.282 91.3904C45.8914 92.892 46.5008 94.2801 46.9355 95.2663L47.4555 96.4311C47.5328 96.5761 47.5915 96.7302 47.6302 96.8898Z" fill="#263238"/>
<path d="M7.19531 94.3412C8.63349 93.3185 9.91323 92.1577 11.3514 91.1309L12.4199 92.1009L8.33286 95.3478L7.19531 94.3412Z" fill="#FAFAFA"/>
</g>
</svg>
