<svg width="134" height="90" viewBox="0 0 134 90" fill="none" xmlns="http://www.w3.org/2000/svg">
<g opacity="0.5">
<path d="M125.144 22.0066C121.945 17.4866 117.713 13.8092 112.805 11.2859C106.22 7.91985 95.8068 3.33345 88.0688 3.47385C75.864 3.69345 48.4048 18.7954 34.0471 21.6682C19.6895 24.541 -1.40571 35.2673 2.98413 57.1013C7.37397 78.9352 19.0212 85.4458 41.3063 82.5731C63.5914 79.7002 71.5242 76.8274 89.5892 80.4598C107.654 84.0922 128.417 81.6154 130.606 55.5695C132.214 36.4985 129.845 28.6199 125.144 22.0066Z" fill="#5277A0"/>
<path opacity="0.7" d="M125.144 22.0066C121.945 17.4866 117.713 13.8092 112.805 11.2859C106.22 7.91985 95.8068 3.33345 88.0688 3.47385C75.864 3.69345 48.4048 18.7954 34.0471 21.6682C19.6895 24.541 -1.40571 35.2673 2.98413 57.1013C7.37397 78.9352 19.0212 85.4458 41.3063 82.5731C63.5914 79.7002 71.5242 76.8274 89.5892 80.4598C107.654 84.0922 128.417 81.6154 130.606 55.5695C132.214 36.4985 129.845 28.6199 125.144 22.0066Z" fill="white"/>
<path d="M16.2758 22.8311L16.7582 28.7477C16.7582 28.7477 12.572 28.0565 11.4625 30.2939C10.353 32.5313 10.3512 38.3795 12.9436 41.4881C14.8107 43.7291 16.8064 42.8057 17.7766 42.1145L18.2804 48.5783C18.2804 50.9921 22.8829 55.4381 28.5609 55.4381C34.2389 55.4381 38.8414 50.9921 38.8414 48.5783L40.8442 22.8383L16.2758 22.8311ZM14.4248 38.8799C12.8168 37.5119 13.6833 31.5413 14.4248 30.7961C14.9733 30.2417 16.2704 30.6467 16.9029 30.8933L17.5657 39.4073C16.7385 39.6143 15.4342 39.7385 14.4248 38.8799Z" fill="#263238"/>
<path d="M28.5603 55.5282C23.036 55.5282 18.1977 51.1974 18.1977 48.5784L17.7063 42.2784C16.6343 42.9984 14.703 43.7346 12.8823 41.5494C10.3453 38.5038 10.2274 32.5998 11.3905 30.2562C12.4285 28.1664 15.9733 28.5462 16.6683 28.6362L16.1877 22.7358H40.9402V22.833L38.9373 48.573C38.9302 51.1974 34.0829 55.5282 28.5603 55.5282ZM17.8529 41.949L18.3674 48.5712C18.3674 50.8356 22.7751 55.3482 28.5603 55.3482C34.3456 55.3482 38.7443 50.8356 38.7443 48.5784L40.7401 22.9212H16.3735L16.8559 28.8612L16.7415 28.8432C16.7005 28.8432 12.6108 28.188 11.5406 30.3426C10.3989 32.643 10.515 38.4426 13.011 41.4378C14.8173 43.5978 16.7398 42.75 17.7242 42.048L17.8529 41.949ZM16.3949 39.6486C15.6568 39.6686 14.9364 39.4186 14.3671 38.9448C13.6738 38.3562 13.4737 37.017 13.438 35.9982C13.3469 33.795 13.8775 31.2156 14.3617 30.7278C14.9352 30.1482 16.2198 30.528 16.9345 30.8052L16.9881 30.825L17.6599 39.465L17.5866 39.483C17.1977 39.5875 16.7974 39.6431 16.3949 39.6486ZM14.4814 38.808C15.4158 39.6036 16.6093 39.5406 17.4705 39.3336L16.8184 30.96C16.2466 30.744 14.9942 30.3534 14.4957 30.8628C14.033 31.32 13.5291 33.8868 13.6167 36C13.6738 37.4094 13.974 38.3832 14.4814 38.817V38.808Z" fill="#263238"/>
<path d="M28.5607 28.0546C35.3446 28.0546 40.844 25.7159 40.844 22.831C40.844 19.9461 35.3446 17.6074 28.5607 17.6074C21.7768 17.6074 16.2773 19.9461 16.2773 22.831C16.2773 25.7159 21.7768 28.0546 28.5607 28.0546Z" fill="white"/>
<path d="M28.56 28.1466C21.7367 28.1466 16.1855 25.7616 16.1855 22.8312C16.1855 19.9008 21.7367 17.5176 28.56 17.5176C35.3833 17.5176 40.9327 19.9026 40.9327 22.8312C40.9327 25.7598 35.3761 28.1466 28.56 28.1466ZM28.56 17.6976C21.835 17.6976 16.3642 20.0016 16.3642 22.8312C16.3642 25.6608 21.835 27.9666 28.56 27.9666C35.285 27.9666 40.754 25.6626 40.754 22.8312C40.754 19.9998 35.2832 17.6976 28.56 17.6976Z" fill="#263238"/>
<path d="M28.5599 27.4788C34.5958 27.4788 39.4889 25.398 39.4889 22.8312C39.4889 20.2644 34.5958 18.1836 28.5599 18.1836C22.524 18.1836 17.6309 20.2644 17.6309 22.8312C17.6309 25.398 22.524 27.4788 28.5599 27.4788Z" fill="white"/>
<path d="M28.5612 27.5707C22.4865 27.5707 17.541 25.4449 17.541 22.8313C17.541 20.2177 22.4847 18.0938 28.5612 18.0938C34.6376 18.0938 39.5795 20.2195 39.5795 22.8313C39.5795 25.4431 34.6358 27.5707 28.5612 27.5707ZM28.5612 18.2737C22.583 18.2737 17.7197 20.3185 17.7197 22.8313C17.7197 25.3441 22.583 27.3907 28.5612 27.3907C34.5394 27.3907 39.4009 25.3459 39.4009 22.8313C39.4009 20.3167 34.5376 18.2737 28.5612 18.2737Z" fill="#263238"/>
<path d="M28.56 27.4789C32.801 27.4789 36.239 26.8785 36.239 26.1379C36.239 25.3973 32.801 24.7969 28.56 24.7969C24.3189 24.7969 20.8809 25.3973 20.8809 26.1379C20.8809 26.8785 24.3189 27.4789 28.56 27.4789Z" fill="#5277A0"/>
<path d="M28.5598 27.5703C25.6547 27.5703 22.9157 27.0915 20.845 26.2203L20.6484 26.1375L20.845 26.0547C22.9157 25.1853 25.6547 24.7065 28.5598 24.7065C31.4649 24.7065 34.2039 25.1853 36.2728 26.0547L36.4712 26.1375L36.2728 26.2203C34.2039 27.0915 31.4631 27.5703 28.5598 27.5703ZM21.1165 26.1303C23.1408 26.9385 25.7726 27.3903 28.5598 27.3903C31.347 27.3903 33.9788 26.9457 36.0013 26.1303C33.9788 25.3221 31.347 24.8703 28.5598 24.8703C25.7726 24.8703 23.1408 25.3293 21.1165 26.1375V26.1303Z" fill="#263238"/>
<path d="M72.0022 36.585C72.0022 36.585 77.8446 50.5638 79.2507 51.3036C80.6568 52.0434 121.879 48.438 121.879 48.438L120.709 47.1258L120.653 38.079L122.195 38.0106L106.447 17.1162L70.8641 19.7352C70.8641 19.7352 68.9649 21.06 68.7004 22.2192C68.436 23.3784 68.5039 25.1118 68.5039 25.1118L72.0022 36.585Z" fill="#263238"/>
<path d="M80.6289 51.4799C79.8446 51.4799 79.3497 51.4475 79.2121 51.3755C77.7935 50.6303 72.1601 37.1843 71.9225 36.6155V36.6065L68.4153 25.1279V25.1153C68.4153 25.0973 68.3599 23.3495 68.6136 22.1993C68.8673 21.0491 70.7344 19.7153 70.8148 19.6595L70.8344 19.6469H70.8576L106.486 17.0225L106.514 17.0621L122.369 38.0915L120.743 38.1653L120.799 47.0915L122.065 48.5117L121.887 48.5261C120.366 48.6593 87.9453 51.4799 80.6289 51.4799ZM72.0887 36.5399C74.1058 41.3657 78.2044 50.6357 79.2943 51.2081C80.3841 51.7805 107.399 49.5971 121.694 48.3479L120.622 47.1455V47.1113L120.566 37.9781L122.022 37.9133L106.407 17.2097L70.8969 19.8215C70.6951 19.9673 69.0192 21.1967 68.7887 22.2389C68.5493 23.3189 68.5886 24.9389 68.5922 25.0973L72.0887 36.5399Z" fill="#263238"/>
<path d="M120.652 38.0786L80.2201 41.3582C79.6091 41.7643 79.0945 42.3012 78.7131 42.9306C78.3317 43.5601 78.0929 44.2665 78.0136 44.9996C77.717 47.543 78.7372 50.126 79.4965 50.4968C80.0497 50.7353 80.641 50.8713 81.2421 50.8982L120.708 47.1182L120.652 38.0786Z" fill="#E0E0E0"/>
<path d="M81.2508 50.9904C80.6354 50.9643 80.03 50.8252 79.4642 50.58C78.6477 50.1804 77.6364 47.52 77.9312 45C78.014 44.2539 78.2578 43.5351 78.6454 42.8939C79.0331 42.2528 79.5552 41.7048 80.1753 41.2884L80.2128 41.2758L120.742 37.98L120.799 47.205L120.717 47.214L81.2508 50.9904ZM80.2396 41.4504C79.6477 41.8534 79.1496 42.3808 78.7794 42.9964C78.4093 43.612 78.176 44.3011 78.0956 45.0162C77.7972 47.5866 78.8603 50.094 79.5249 50.4162C80.0669 50.6491 80.6461 50.782 81.2348 50.8086L120.608 47.043L120.552 38.1744L80.2396 41.4504Z" fill="#263238"/>
<path d="M79.5068 6.505L63.1963 29.194C63.1963 29.194 62.303 30.076 62.3494 32.2378C62.3959 34.3996 62.5013 37.9258 63.1391 38.1778C63.777 38.4298 110.974 42.0298 110.974 42.0298L121.872 16.6732L121.022 16.3132L121.315 10.0618L122.029 8.0386L80.7056 6.0874L79.5068 6.505Z" fill="#5277A0"/>
<path d="M111.03 42.1198H110.966C109.038 41.974 63.7512 38.5072 63.108 38.2588C62.5917 38.059 62.3379 36.259 62.2593 32.2414C62.2165 30.0652 63.0955 29.1688 63.133 29.131L79.4506 6.42941L80.6906 5.99561H80.7085L122.147 7.954L121.403 10.0798L121.11 16.2466L121.986 16.6246L121.95 16.7092L111.03 42.1198ZM79.5614 6.58061L63.267 29.2462C63.2491 29.266 62.3969 30.1462 62.438 32.236C62.4648 33.6238 62.5488 37.8484 63.1705 38.0896C63.7834 38.2894 94.6284 40.6888 110.916 41.9398L121.752 16.72L120.926 16.36L121.23 10.0294L121.898 8.1178L80.7174 6.17741L79.5614 6.58061Z" fill="#263238"/>
<path d="M64.6621 29.8404C64.6621 29.8404 63.1863 29.3796 62.7664 30.8088C62.3466 32.238 63.3792 37.4166 63.3792 37.4166C63.3792 37.4166 64.2601 37.7874 64.6657 37.8C65.0712 37.8126 110.488 40.833 110.488 40.833L121.017 16.3062L121.314 10.062L111.24 32.04L64.6621 29.8404Z" fill="white"/>
<path d="M110.546 40.9263H110.483C110.029 40.8957 65.0607 37.9041 64.6622 37.8933C64.2638 37.8825 63.3812 37.5189 63.3437 37.5045L63.3008 37.4847L63.2919 37.4379C63.249 37.2255 62.2609 32.2179 62.6826 30.7869C62.7293 30.5927 62.8151 30.4102 62.9346 30.2507C63.0542 30.0913 63.205 29.9583 63.3776 29.8599C63.7846 29.6688 64.2461 29.6311 64.6783 29.7537L111.185 31.9515L121.425 9.60449L121.099 16.3401L110.546 40.9263ZM63.4562 37.3515C63.6349 37.4253 64.3335 37.6989 64.6676 37.7115C65.066 37.7223 107.83 40.5681 110.431 40.7409L120.93 16.2843L121.203 10.5243L111.298 32.1333H111.237L64.6479 29.9283H64.6354C64.2461 29.817 63.8302 29.8482 63.4616 30.0165C63.3104 30.1044 63.1784 30.2224 63.0737 30.3631C62.969 30.5039 62.8937 30.6646 62.8523 30.8355C62.4664 32.1531 63.3562 36.8295 63.4562 37.3515Z" fill="#263238"/>
<path d="M110.199 31.9914L64.6621 29.8404C64.6621 29.8404 63.1863 29.3796 62.7664 30.8088C62.3466 32.238 63.3792 37.4166 63.3792 37.4166C63.3792 37.4166 64.2601 37.7874 64.6657 37.8C65.0712 37.8126 110.488 40.833 110.488 40.833L110.426 32.193L110.199 31.9914Z" fill="#E0E0E0"/>
<path d="M110.58 40.9284H110.483C110.029 40.8978 65.0607 37.9061 64.6622 37.8953C64.2638 37.8845 63.3812 37.5209 63.3437 37.5065L63.3008 37.4867L63.2919 37.4399C63.249 37.2275 62.2609 32.2199 62.6826 30.7889C62.7293 30.5947 62.8151 30.4122 62.9346 30.2528C63.0542 30.0933 63.205 29.9603 63.3776 29.8619C63.7846 29.6709 64.2461 29.6332 64.6783 29.7557L110.238 31.9157L110.519 32.1569V32.1983L110.58 40.9284ZM63.4562 37.3517C63.6349 37.4255 64.3335 37.6991 64.6676 37.7117C65.0642 37.7225 107.489 40.545 110.406 40.7376L110.344 32.2307L110.165 32.0813L64.6479 29.9285H64.6354C64.2461 29.8172 63.8302 29.8485 63.4616 30.0167C63.3104 30.1047 63.1784 30.2226 63.0737 30.3634C62.969 30.5041 62.8937 30.6648 62.8523 30.8357C62.4664 32.1533 63.3562 36.8297 63.4562 37.3517Z" fill="#263238"/>
<path d="M70.7803 76.3202C70.7803 76.3202 72.4491 78.7448 74.1928 78.707C85.8169 78.4514 105.863 84.0602 108.19 84.0602C110.516 84.0602 112.245 83.8532 112.245 83.3546C112.245 82.856 104.064 50.2346 104.064 50.2346L102.442 49.7378L108.013 81.5726C108.013 81.5726 101.1 80.579 87.1354 78.2336C73.1709 75.8882 73.7355 73.9136 72.0488 74.2628C70.3622 74.612 70.7803 76.3202 70.7803 76.3202Z" fill="#5277A0"/>
<path d="M108.19 84.1464C107.486 84.1464 105.199 83.6442 102.035 82.9494C94.6666 81.3294 82.3296 78.615 74.1949 78.8094H74.1467C72.3922 78.8094 70.7717 76.4838 70.7038 76.3848L70.6895 76.3542C70.6895 76.3218 70.4965 75.5478 70.8932 74.9142C71.0227 74.7217 71.1903 74.5584 71.3856 74.4345C71.5809 74.3105 71.7995 74.2287 72.0277 74.1942C72.6352 74.0682 72.9675 74.2266 73.6929 74.5758C75.0776 75.24 77.9577 76.6206 87.1465 78.165C99.9605 80.325 106.914 81.342 107.9 81.486L102.324 49.626L104.134 50.1822L104.147 50.2308C104.481 51.5628 112.331 82.8648 112.331 83.367C112.331 83.8692 110.941 84.1464 108.19 84.1464ZM74.9936 78.6132C83.1444 78.6132 94.9346 81.2034 102.072 82.773C105.226 83.466 107.504 83.9664 108.19 83.9664C111.115 83.9664 112.156 83.6496 112.156 83.3508C112.131 82.8666 106.811 61.56 103.984 50.3082L102.555 49.869L108.124 81.6822L108 81.6642C107.933 81.6534 100.927 80.6418 87.1215 78.3234C77.9059 76.7772 75.0114 75.3876 73.6196 74.7234C72.905 74.3832 72.6155 74.241 72.0688 74.3634C71.8634 74.394 71.6664 74.4672 71.4905 74.5784C71.3146 74.6897 71.1635 74.8365 71.0468 75.0096C70.8364 75.4039 70.773 75.8611 70.8682 76.2984C71.0075 76.4946 72.5923 78.6672 74.1967 78.6384C74.454 78.615 74.722 78.6132 74.9936 78.6132Z" fill="#263238"/>
<path d="M109.848 83.2086C107.45 83.0664 102.785 81.8442 91.2667 79.4628C79.7481 77.0814 71.1238 75.6396 71.1238 75.6396L70.8809 76.4766C71.2793 77.004 72.705 78.7447 74.1844 78.7123C85.8174 78.4513 105.864 84.06 108.19 84.06C110.516 84.06 112.246 83.853 112.246 83.3544C112.246 83.3112 111.043 83.2806 109.848 83.2086Z" fill="#263238"/>
<path d="M108.19 84.1468C107.486 84.1468 105.199 83.6446 102.034 82.9498C94.6662 81.3298 82.3329 78.6172 74.1946 78.8098C72.6688 78.8494 71.227 77.08 70.8178 76.5382L70.791 76.5022L71.0679 75.5464L71.1466 75.559C71.2323 75.5734 79.9155 77.0296 91.293 79.3822C95.4166 80.2354 98.6451 80.9356 101.238 81.499C105.804 82.4908 108.32 83.0362 109.853 83.119C110.309 83.146 110.768 83.1676 111.159 83.1856C112.335 83.2414 112.335 83.2414 112.335 83.3512C112.335 83.8804 110.941 84.1468 108.19 84.1468ZM74.9933 78.6136C83.144 78.6136 94.9342 81.2038 102.072 82.7734C105.225 83.4664 107.503 83.9668 108.19 83.9668C110.889 83.9668 111.984 83.6968 112.136 83.4268C111.972 83.4088 111.57 83.3908 111.15 83.371C110.759 83.353 110.3 83.3314 109.842 83.3044C108.297 83.2126 105.776 82.6654 101.2 81.6736C98.6076 81.1102 95.3791 80.4136 91.2573 79.5568C80.4569 77.323 72.0881 75.8992 71.1948 75.748L70.9876 76.468C71.4128 77.0242 72.7617 78.628 74.1517 78.628H74.191C74.4537 78.6154 74.7217 78.6136 74.9933 78.6136Z" fill="#263238"/>
<path d="M33.1153 48.9604C33.1153 48.9604 32.2684 49.2449 32.129 49.8839C31.9897 50.5229 23.8764 83.2829 24.6518 83.3638C25.4273 83.4449 68.1715 83.7239 68.6646 83.2216C69.1577 82.7194 70.7818 76.3204 70.7818 76.3204L67.1799 81.229L30.0797 80.3057L34.5232 49.7489L33.1153 48.9604Z" fill="#5277A0"/>
<path d="M51.4395 83.6065C39.1848 83.6065 24.8736 83.4715 24.6395 83.4499C24.622 83.4483 24.605 83.4429 24.5899 83.4338C24.5747 83.4248 24.5618 83.4125 24.552 83.3977C24.4234 83.2177 24.0303 82.6597 31.6647 51.4063C31.8863 50.5063 32.0221 49.9483 32.0381 49.8709C32.1882 49.1905 33.0476 48.8935 33.0833 48.8827L33.1209 48.8701L34.6199 49.6999L30.1836 80.2171L67.139 81.1387L70.9785 75.9025L70.866 76.3489C70.6998 77.0059 69.224 82.7821 68.722 83.2825C68.479 83.5327 60.523 83.6065 51.4395 83.6065ZM24.6931 83.2735C26.11 83.3131 67.6768 83.6209 68.6112 83.1475C68.9685 82.7875 70.0602 78.7591 70.5765 76.7521L67.2247 81.3205H67.1783L29.9763 80.3953L29.9906 80.2945L34.4251 49.7989L33.1048 49.0681C32.9475 49.1293 32.324 49.4029 32.2114 49.9123C32.1954 49.9915 32.0614 50.5405 31.838 51.4513C25.3792 77.8987 24.5699 82.8001 24.6931 83.2735Z" fill="#263238"/>
<path d="M68.6644 83.2197C69.1593 82.7211 70.7816 76.3257 70.7816 76.3257L70.5422 76.6497L68.3124 82.4403L25.0751 83.0019L24.6445 83.3619C25.4271 83.4321 68.1713 83.7165 68.6644 83.2197Z" fill="#263238"/>
<path d="M51.4402 83.6068C39.1854 83.6068 24.8742 83.4718 24.6402 83.4502L24.4258 83.4304L25.0475 82.9084H25.0797L68.2509 82.3486L70.47 76.5976L70.9792 75.9028L70.8666 76.3492C70.7004 77.0062 69.2247 82.7824 68.7226 83.2828C68.4796 83.533 60.5254 83.6068 51.4402 83.6068ZM24.8903 83.2774C28.285 83.3296 67.572 83.6086 68.6065 83.1496C68.9638 82.759 70.0072 78.9538 70.5379 76.9108L68.3724 82.5268H68.3135L25.1154 83.0884L24.8903 83.2774Z" fill="#263238"/>
<path d="M34.1026 48.5409L33.1146 48.9675L26.2734 82.2945L68.3119 82.4367L71.1331 75.1179L31.6334 77.0367L35.3015 48.4707L34.1026 48.5409Z" fill="white"/>
<path d="M68.3721 82.5264H68.3114L26.1621 82.3842L33.0372 48.9042L34.0967 48.4524L35.4028 48.375L35.3902 48.483L31.7347 76.941L71.2665 75.0222L68.3721 82.5264ZM26.3854 82.206L68.2542 82.3464L71.0039 75.2148L31.531 77.1318L31.5453 77.0256L35.1973 48.5658L34.1253 48.6306L33.1944 49.032L26.3854 82.206Z" fill="#263238"/>
<path d="M29.0946 78.1021L27.1775 81.3151L26.2734 82.2943L68.3119 82.4365L71.1331 75.1177L31.6334 77.0365L29.0946 78.1021Z" fill="#E0E0E0"/>
<path d="M68.3731 82.5265H68.3123L26.0684 82.3843L27.1064 81.2593L29.0342 78.0301L31.6303 76.9501L71.2675 75.0259L68.3731 82.5265ZM26.4775 82.2061L68.2516 82.3465L71.0012 75.2149L31.6535 77.1265L29.1521 78.1741L27.2404 81.3763L26.4775 82.2061Z" fill="#263238"/>
<path d="M71.1319 75.1177V68.5801L37.2049 72.3457L34.666 76.8241L71.1319 75.1177Z" fill="#B8B8B8"/>
<path d="M34.5078 76.9213L37.1503 72.2629H37.1967L71.222 68.4829V75.2041H71.1363L34.5078 76.9213ZM37.2611 72.4303L34.8241 76.7251L71.0434 75.0313V68.6809L37.2611 72.4303Z" fill="#263238"/>
<path d="M35.6526 44.9177L34.6664 45.0599L29.0938 78.1025C29.0938 78.1025 33.6783 77.7425 39.8852 76.2557C46.0921 74.7689 58.7185 72.4883 62.9511 73.1291C67.1837 73.7699 70.7803 76.3205 70.7803 76.3205C70.7803 76.3205 76.0616 77.3771 81.9862 78.5849C87.9108 79.7927 96.728 81.6449 102.583 82.6367C108.438 83.6285 109.848 83.2037 109.848 83.2037L102.583 49.1657L101.877 48.9605L105.756 79.7999C105.756 79.7999 81.293 72.9869 78.0448 72.9869C74.7967 72.9869 73.0422 69.5039 66.5476 68.2259C60.0531 66.9479 52.7903 69.5039 46.6567 70.5659C42.811 71.25 39.0167 72.2002 35.3006 73.4099L36.9229 44.9141L35.6526 44.9177Z" fill="#E0E0E0"/>
<path d="M108.647 83.3926C107.593 83.3926 105.725 83.2666 102.572 82.7302C97.6408 81.9004 90.6228 80.4604 84.984 79.2958L81.9681 78.6784C76.1114 77.485 70.8158 76.4248 70.7622 76.414L70.7282 76.3996C70.6925 76.3744 67.0977 73.8472 62.9366 73.2172C58.6379 72.5674 45.6059 74.9722 39.9064 76.342C36.3521 77.2139 32.7413 77.8322 29.1007 78.1924L28.9863 78.2014L29.006 78.088L34.5893 44.9788L35.6613 44.8276H37.0263L35.4058 73.2856C39.0877 72.0981 42.8446 71.1612 46.6511 70.4812C48.1984 70.213 49.7938 69.8548 51.484 69.475C56.5099 68.3446 61.7056 67.1782 66.5742 68.1376C70.0886 68.8306 72.2308 70.1716 73.9532 71.248C75.4236 72.1696 76.5849 72.8968 78.0536 72.8968C81.1856 72.8968 103.535 79.0852 105.659 79.6756L101.77 48.8326L102.663 49.1008L102.674 49.153L109.951 83.272L109.872 83.2954C109.846 83.3044 109.531 83.3926 108.647 83.3926ZM70.8158 76.2412C71.1624 76.3114 76.3187 77.3428 82.0039 78.502L85.0198 79.1194C90.6567 80.2768 97.673 81.715 102.597 82.552C107.612 83.4052 109.367 83.2072 109.744 83.1406L102.506 49.243L101.982 49.0846L105.861 79.9204L105.733 79.8844C105.488 79.816 81.241 73.075 78.0393 73.075C76.5188 73.075 75.3378 72.3352 73.8442 71.3992C72.1361 70.33 70.0082 68.998 66.5188 68.3122C61.6948 67.36 56.5135 68.5228 51.5108 69.6478C49.8189 70.0276 48.2216 70.3876 46.669 70.6576C42.828 71.3425 39.038 72.2909 35.3254 73.4962L35.2004 73.5394L36.828 45.0004H35.6595L34.743 45.1318L29.2043 77.9962C32.7965 77.6297 36.3597 77.0163 39.8689 76.1602C45.7649 74.7436 58.5878 72.3802 62.9669 73.0318C67.0262 73.6528 70.5496 76.0558 70.8158 76.2412Z" fill="#263238"/>
<path d="M31.6326 77.0367L29.0938 78.1023L34.6664 45.0597L36.9229 44.9175L31.6326 77.0367Z" fill="white"/>
<path d="M28.9785 78.2481L34.5904 44.9733L37.031 44.8203L31.7139 77.1015L28.9785 78.2481ZM34.7423 45.1443L29.2036 77.9565L31.5477 76.9719L36.8113 45.0147L34.7423 45.1443Z" fill="#263238"/>
<path d="M70.2852 40.5109C70.2852 40.5109 70.9212 39.3733 76.7046 40.8709C82.4881 42.3685 88.5449 46.1197 93.4832 46.8289C98.4216 47.5381 101.661 48.2401 101.661 48.2401L108.363 82.4923C108.363 82.4923 97.4336 81.0001 87.1352 78.2353C76.8369 75.4705 72.472 73.6201 71.132 75.1177L70.2852 40.5109Z" fill="white"/>
<path d="M108.478 82.6057L108.355 82.5877C108.246 82.5733 97.2992 81.0631 87.1134 78.3217C84.6621 77.6629 82.5717 77.0617 80.7297 76.5343C75.0409 74.9017 72.1822 74.0827 71.1996 75.1789L71.0495 75.3445L70.1973 40.4893L70.2098 40.4677C70.2366 40.4173 70.9441 39.2869 76.7275 40.7791C79.3682 41.4613 82.0697 42.6151 84.6818 43.7293C87.8388 45.0775 90.819 46.3519 93.4972 46.7371C98.3801 47.4391 101.653 48.1519 101.685 48.1591L101.743 48.1717L108.478 82.6057ZM72.7182 74.4931C74.2726 74.4931 76.8044 75.2131 80.785 76.3615C82.6271 76.8889 84.7157 77.4883 87.167 78.1489C96.7489 80.7283 107.022 82.2169 108.255 82.3915L101.591 48.3229C101.133 48.2257 97.996 47.5669 93.4722 46.9153C90.7707 46.5265 87.7799 45.2485 84.6121 43.8967C82.0071 42.7825 79.3111 41.6323 76.6829 40.9537C71.5015 39.6145 70.4974 40.4137 70.3777 40.5415L71.2175 74.9215C71.5623 74.6245 72.0482 74.4931 72.7182 74.4931Z" fill="#263238"/>
<path d="M99.8459 52.5601C88.4613 50.0401 87.777 49.9645 87.752 49.9627V49.7827C87.7662 49.7827 88.2504 49.8115 99.8781 52.3855L99.8459 52.5601Z" fill="#263238"/>
<path d="M100.097 54.038C98.6465 53.7158 97.3101 53.417 96.1112 53.147C94.5943 52.8068 93.2847 52.5134 92.2413 52.2884C88.2999 51.437 87.8872 51.401 87.8711 51.3992L87.88 51.2192C87.8943 51.2192 88.2642 51.2462 92.2788 52.1192C93.3222 52.3442 94.6318 52.6394 96.1487 52.9796L100.137 53.8688L100.097 54.038Z" fill="#263238"/>
<path d="M100.346 55.5176C98.835 55.1828 97.3431 54.8408 96.0245 54.5384C94.6184 54.2162 93.4053 53.939 92.4083 53.723C88.5384 52.8878 88.0078 52.841 87.9863 52.8392L87.9988 52.6592C88.0185 52.6592 88.5348 52.7024 92.4458 53.5466C93.4428 53.7626 94.6577 54.0416 96.0656 54.3638C97.3824 54.6644 98.8743 55.0064 100.386 55.3412L100.346 55.5176Z" fill="#263238"/>
<path d="M100.589 56.9971C99.1594 56.6821 97.7033 56.3401 96.29 56.0089C94.9071 55.6867 93.5993 55.3807 92.5702 55.1575C88.7878 54.3403 88.1035 54.2809 88.1035 54.2791L88.116 54.0991C88.1428 54.0991 88.8039 54.1567 92.6166 54.9811C93.6475 55.2043 94.9554 55.5085 96.34 55.8325C97.7533 56.1619 99.2148 56.5039 100.628 56.8189L100.589 56.9971Z" fill="#263238"/>
<path d="M100.849 58.4766C99.548 58.1886 98.0829 57.8394 96.6679 57.5028C95.2118 57.1572 93.836 56.8278 92.7462 56.6028C89.0585 55.8054 88.2277 55.7298 88.2188 55.7298L88.233 55.5498C88.2652 55.5498 89.0728 55.6236 92.7837 56.4264C93.8753 56.6622 95.2511 56.9898 96.7143 57.3372C98.1294 57.6738 99.5927 58.0212 100.892 58.3092L100.849 58.4766Z" fill="#263238"/>
<path d="M101.098 59.9564C99.9294 59.6972 98.484 59.348 97.0851 59.0096C95.6057 58.6496 94.0745 58.2788 92.915 58.0286C89.322 57.251 88.3447 57.161 88.334 57.161L88.3501 56.981C88.3894 56.981 89.3417 57.071 92.9525 57.8522C94.1139 58.1042 95.645 58.475 97.128 58.8332C98.5251 59.1716 99.9688 59.5226 101.135 59.78L101.098 59.9564Z" fill="#263238"/>
<path d="M101.349 61.4359C100.315 61.2073 98.9623 60.8743 97.5294 60.5215C95.9535 60.1327 94.3134 59.7313 93.0842 59.4631C89.5912 58.7071 88.4638 58.6027 88.4531 58.6009L88.4674 58.4209C88.4781 58.4209 89.6127 58.5253 93.1217 59.2849C94.3616 59.5549 95.9946 59.9563 97.5723 60.3451C99.0016 60.6961 100.354 61.0291 101.387 61.2577L101.349 61.4359Z" fill="#263238"/>
<path d="M101.599 62.9156C100.705 62.7158 99.3848 62.3882 97.9966 62.0408C96.3153 61.6196 94.5769 61.1858 93.253 60.8978C89.8583 60.1634 88.5809 60.0428 88.5684 60.0428L88.5844 59.8628C88.5969 59.8628 89.8816 59.9852 93.2905 60.7214C94.6162 61.0094 96.3564 61.4414 98.0395 61.8662C99.4277 62.2136 100.737 62.5412 101.636 62.7392L101.599 62.9156Z" fill="#263238"/>
<path d="M101.85 64.3951C101.078 64.2241 99.8218 63.9055 98.4944 63.5689C96.7827 63.1333 94.8424 62.6401 93.422 62.3323C90.1274 61.6123 88.6998 61.4845 88.6855 61.4827L88.7016 61.3027C88.7159 61.3027 90.1524 61.4413 93.4595 62.1577C94.8889 62.4655 96.8238 62.9587 98.5372 63.3943C99.8647 63.7309 101.119 64.0495 101.889 64.2205L101.85 64.3951Z" fill="#263238"/>
<path d="M102.099 65.88C101.452 65.7378 100.312 65.4462 99.0082 65.1078C97.1822 64.6362 95.1132 64.1034 93.591 63.7722C90.3964 63.081 88.817 62.9298 88.8027 62.928L88.8188 62.748C88.8349 62.748 90.4268 62.901 93.6285 63.5958C95.1543 63.927 97.2251 64.4598 99.0528 64.9314C100.362 65.268 101.493 65.5614 102.138 65.7036L102.099 65.88Z" fill="#263238"/>
<path d="M102.35 67.3563C101.825 67.2393 100.773 66.9639 99.5542 66.6453C97.7014 66.1611 95.3966 65.5653 93.76 65.2053C90.6673 64.5339 88.936 64.3665 88.9199 64.3665L88.936 64.1865C90.5712 64.3804 92.1952 64.6609 93.8011 65.0271C95.4413 65.3871 97.7478 65.9865 99.6024 66.4671C100.819 66.7857 101.87 67.0611 102.393 67.1763L102.35 67.3563Z" fill="#263238"/>
<path d="M102.601 68.8357C102.189 68.7439 101.276 68.5009 100.12 68.1949C98.2508 67.6999 95.6905 67.0213 93.9288 66.6379C92.3134 66.2732 90.6799 65.995 89.0352 65.8045L89.053 65.6245C90.7042 65.8165 92.3443 66.0959 93.9664 66.4615C95.7316 66.8449 98.2937 67.5253 100.166 68.0221C101.318 68.3263 102.23 68.5621 102.639 68.6593L102.601 68.8357Z" fill="#263238"/>
<path d="M102.851 70.3153C102.545 70.2469 101.741 70.0309 100.725 69.7573C98.7307 69.2173 96.0006 68.4865 94.096 68.0725C92.4637 67.7091 90.8135 67.4327 89.1523 67.2445L89.1684 67.0645C90.8368 67.2527 92.4942 67.5297 94.1336 67.8943C96.0417 68.3101 98.7789 69.0445 100.771 69.5827C101.786 69.8545 102.586 70.0705 102.888 70.1371L102.851 70.3153Z" fill="#263238"/>
<path d="M103.101 71.7948C102.894 71.748 102.256 71.5752 101.374 71.334C99.4906 70.8192 96.3353 69.9588 94.2663 69.507C92.614 69.146 90.9442 68.8715 89.2637 68.6844L89.2815 68.5044C90.9671 68.6908 92.6417 68.9666 94.2985 69.3306C96.3728 69.7806 99.5299 70.6428 101.415 71.1576C102.296 71.3988 102.932 71.5716 103.134 71.6166L103.101 71.7948Z" fill="#263238"/>
<path d="M103.351 73.2745C103.231 73.2475 102.77 73.1197 102.074 72.9271C100.198 72.4051 96.7137 71.4367 94.4339 70.9471C92.766 70.5872 91.0807 70.315 89.3848 70.1317L89.4026 69.9517C91.1052 70.1363 92.7971 70.4102 94.4714 70.7725C96.7476 71.2675 100.242 72.2377 102.12 72.7525C102.79 72.9325 103.274 73.0729 103.389 73.0981L103.351 73.2745Z" fill="#263238"/>
<path d="M103.601 74.754C103.555 74.7432 103.31 74.6748 102.869 74.5506C101.157 74.0664 97.1515 72.9306 94.6037 72.378C92.9213 72.0196 91.2218 71.7486 89.5117 71.5662L89.5278 71.3862C91.2479 71.5704 92.9575 71.8426 94.6502 72.2016C97.2033 72.7578 101.214 73.8918 102.926 74.376C103.321 74.4876 103.607 74.5686 103.65 74.5776L103.601 74.754Z" fill="#263238"/>
<path d="M103.846 76.2318C103.789 76.2156 98.0254 74.5218 94.7719 73.8126C92.2813 73.2726 89.6459 73.0098 89.6191 73.0062L89.637 72.8262C91.3735 73.0081 93.0998 73.2778 94.8094 73.6344C98.0683 74.3544 103.839 76.041 103.896 76.0572L103.846 76.2318Z" fill="#263238"/>
<path d="M85.9381 49.4568C83.7209 48.429 82.1611 47.5326 80.9087 46.8126C79.6062 46.062 78.5753 45.4716 77.439 45.1008C75.8288 44.6117 74.1659 44.3203 72.4863 44.2332V44.0532C74.1829 44.1404 75.8628 44.4348 77.489 44.9298C78.645 45.306 79.6812 45.9018 80.9944 46.656C82.2451 47.376 83.7995 48.276 86.0096 49.293L85.9381 49.4568Z" fill="#263238"/>
<path d="M86.0591 50.9184C84.0706 49.9968 82.6055 49.1652 81.4281 48.4974C80.0541 47.718 78.9679 47.1024 77.694 46.6866C75.2248 45.8784 72.7199 45.7452 72.5269 45.7758L72.4805 45.5958C72.5984 45.5598 75.1605 45.6642 77.7493 46.5102C79.0411 46.9314 80.1328 47.5506 81.5156 48.3354C82.7502 49.0356 84.151 49.8312 86.1342 50.751L86.0591 50.9184Z" fill="#263238"/>
<path d="M86.1706 52.3803C84.3982 51.5577 83.0886 50.8251 81.9326 50.1771C80.4943 49.3707 79.358 48.7371 77.9412 48.2691C75.1683 47.3583 72.6937 47.2719 72.5419 47.3169L72.4883 47.1369C72.7027 47.0685 75.2648 47.1927 77.9966 48.0909C79.4259 48.5625 80.5729 49.2015 82.0201 50.0133C83.1725 50.6577 84.4786 51.3903 86.2456 52.2093L86.1706 52.3803Z" fill="#263238"/>
<path d="M86.2858 53.8437C84.7171 53.1237 83.5057 52.4469 82.4373 51.8637C81.0079 51.0681 79.7573 50.3823 78.1904 49.8639C75.2674 48.8991 72.8143 48.7839 72.5517 48.8685L72.498 48.6975C72.8554 48.5823 75.3835 48.7479 78.2458 49.6929C79.8305 50.2149 81.0776 50.9061 82.523 51.7053C83.595 52.2957 84.7975 52.9653 86.359 53.6853L86.2858 53.8437Z" fill="#263238"/>
<path d="M86.3972 55.3072C85.0232 54.67 83.9137 54.0634 82.9346 53.5288C81.4481 52.7152 80.1653 52.015 78.4358 51.4408C75.3056 50.404 72.8971 50.2978 72.5595 50.4058L72.5059 50.2348C72.94 50.0944 75.5021 50.2798 78.493 51.2698C80.2368 51.8476 81.5303 52.5532 83.0204 53.3704C83.9959 53.9104 85.1036 54.508 86.4704 55.1434L86.3972 55.3072Z" fill="#263238"/>
<path d="M86.5106 56.7688C85.3207 56.218 84.3577 55.6978 83.4286 55.1938C81.901 54.3694 80.5806 53.6566 78.685 53.0338C75.3743 51.9322 73.0016 51.8188 72.5692 51.9538L72.5156 51.7828C73.0606 51.6028 75.6083 51.817 78.7404 52.8628C80.6521 53.4982 82.0421 54.2488 83.5126 55.0426C84.4398 55.5448 85.4011 56.0632 86.5856 56.6122L86.5106 56.7688Z" fill="#263238"/>
<path d="M86.624 58.2304C85.6074 57.7606 84.7462 57.2998 83.9154 56.8552C82.42 56.0578 81.0085 55.3036 78.9342 54.6106C75.527 53.4748 73.1132 53.3218 72.579 53.4946L72.5254 53.3146C73.165 53.1094 75.6628 53.3146 78.9895 54.4324C81.0782 55.1308 82.4968 55.8868 83.9922 56.6896C84.823 57.1324 85.6824 57.5896 86.6937 58.0594L86.624 58.2304Z" fill="#263238"/>
<path d="M86.7354 59.6935C85.8814 59.2975 85.1274 58.8961 84.3895 58.5091C82.8744 57.7081 81.4415 56.9521 79.1796 56.1961C75.5437 54.9775 73.2068 54.8389 72.5868 55.0369L72.5332 54.8659C73.3354 54.6085 75.9582 54.9271 79.2368 56.0251C81.513 56.7865 83.0174 57.5821 84.4735 58.3507C85.2042 58.7359 85.96 59.1355 86.8105 59.5297L86.7354 59.6935Z" fill="#263238"/>
<path d="M86.8488 61.1553C86.1449 60.8295 85.5195 60.5019 84.8567 60.1563C83.1197 59.2062 81.3034 58.4112 79.4288 57.7803C75.8805 56.5887 73.3988 56.3241 72.5966 56.5815L72.543 56.4105C73.4006 56.1351 75.8787 56.3997 79.486 57.6093C81.3691 58.2435 83.1936 59.0422 84.9389 59.9961C85.5999 60.3417 86.2235 60.6675 86.9239 60.9915L86.8488 61.1553Z" fill="#263238"/>
<path d="M86.9611 62.617C86.3965 62.356 85.8694 62.077 85.3102 61.7944C83.507 60.826 81.6255 60.0137 79.6858 59.3662C75.7462 58.0396 73.4146 57.8704 72.6142 58.126L72.5605 57.955C73.4253 57.6778 75.7658 57.8578 79.7429 59.1952C81.6943 59.8452 83.5872 60.6612 85.4013 61.6342C85.957 61.9222 86.484 62.194 87.0451 62.455L86.9611 62.617Z" fill="#263238"/>
<path d="M87.0736 64.0801C86.6359 63.8767 86.2053 63.6553 85.7479 63.4231C83.8775 62.4396 81.93 61.6124 79.9252 60.9499C74.9529 59.2741 73.1555 59.4955 72.6142 59.6701L72.5605 59.4901C73.7397 59.1139 76.4448 59.5801 79.9806 60.7717C81.9945 61.4357 83.9505 62.2666 85.8283 63.2557C86.2839 63.4879 86.7127 63.7075 87.1487 63.9091L87.0736 64.0801Z" fill="#263238"/>
<path d="M87.189 65.5416C86.8638 65.3904 86.5261 65.2194 86.1688 65.0394C84.24 64.045 82.2356 63.2071 80.1745 62.5338C75.4792 60.948 73.4781 60.9408 72.6259 61.2144L72.5723 61.0344C73.8229 60.6312 76.4797 61.0884 80.2317 62.3574C82.3007 63.0354 84.3129 63.878 86.2492 64.8774C86.6065 65.0574 86.9424 65.2266 87.264 65.376L87.189 65.5416Z" fill="#263238"/>
<path d="M87.2985 67.0054C87.0733 66.8992 86.8357 66.7804 86.5606 66.6454C85.4671 66.1054 83.8145 65.272 80.4198 64.1254C76.5356 62.8096 73.9163 62.3524 72.6317 62.7628L72.5781 62.5918C73.9163 62.1634 76.4999 62.608 80.477 63.9544C83.8824 65.1082 85.5422 65.9344 86.6392 66.487C86.9143 66.6238 87.1502 66.7426 87.3735 66.847L87.2985 67.0054Z" fill="#263238"/>
<path d="M87.4102 68.4669C87.2691 68.4003 87.1101 68.3229 86.9243 68.2311C85.9577 67.7523 84.339 66.9513 80.6709 65.7111C76.5616 64.3179 74.0085 63.8715 72.6434 64.3089L72.5898 64.1289C73.9924 63.6789 76.5777 64.1289 80.7281 65.5329C84.4104 66.7821 86.0363 67.5867 87.0065 68.0673C87.1851 68.1591 87.3495 68.2365 87.4889 68.3013L87.4102 68.4669Z" fill="#263238"/>
<path d="M87.5233 69.9287L87.2517 69.7973C86.5371 69.4517 84.8915 68.6399 80.9162 67.2899C76.571 65.8139 74.0983 65.3819 72.6511 65.8499L72.5957 65.6789C74.084 65.2019 76.5889 65.6339 80.9734 67.1189C84.9594 68.4743 86.621 69.2879 87.3303 69.6389C87.4375 69.6929 87.5251 69.7361 87.5983 69.7685L87.5233 69.9287Z" fill="#263238"/>
<path d="M87.6367 71.3917L87.5331 71.3413C86.1716 70.6789 84.0294 69.8491 81.1636 68.8735C76.638 67.3345 74.1742 66.9043 72.6609 67.3903L72.6055 67.2103C74.1813 66.7063 76.5969 67.1221 81.2208 68.6971C84.0937 69.6745 86.2431 70.5061 87.6099 71.1721L87.7117 71.2207L87.6367 71.3917Z" fill="#263238"/>
<path d="M87.7463 72.8517C87.7321 72.8517 86.2491 72.1083 81.4108 70.4595C76.6404 68.8395 74.2642 68.4201 72.6687 68.9331L72.6133 68.7621C74.257 68.2347 76.6565 68.6487 81.468 70.2885C86.3224 71.9427 87.8125 72.6843 87.8267 72.6915L87.7463 72.8517Z" fill="#263238"/>
<path d="M70.2856 40.5108L71.1324 75.1176C71.1324 75.1176 68.5936 69.8598 61.8221 70.0776C55.0506 70.2954 40.098 75.5496 37.7021 76.0464C35.3062 76.5432 31.6328 77.04 31.6328 77.04L35.6528 43.9974C35.6528 43.9974 53.4212 40.725 57.1732 39.5874C60.9252 38.4498 64.1573 37.2474 66.555 37.8108C68.9527 38.3742 70.2856 38.8062 70.2856 40.5108Z" fill="white"/>
<path d="M31.5312 77.141L31.5455 77.0258L35.5727 43.9202L35.637 43.9076C35.8157 43.8752 53.4501 40.628 57.1413 39.5048C57.6249 39.3572 58.1014 39.2102 58.5707 39.0638C61.7313 38.0774 64.4667 37.226 66.5714 37.7264C68.9315 38.2862 70.3787 38.72 70.3787 40.5128L71.2363 75.5318L71.0577 75.161C71.0327 75.1088 68.4617 69.9554 61.8295 70.166C56.8555 70.3226 47.4701 73.2044 41.8618 74.9252C39.8285 75.5498 38.3581 76.0052 37.7221 76.133C35.3494 76.6262 31.6867 77.1248 31.6474 77.1302L31.5312 77.141ZM35.7335 44.0696L31.7367 76.9322C32.3763 76.8422 35.5512 76.3922 37.681 75.953C38.3099 75.8234 39.8518 75.35 41.8046 74.7506C47.4219 73.0262 56.8126 70.1408 61.8153 69.9824C67.5915 69.8024 70.3412 73.6202 71.0309 74.7614L70.1929 40.511C70.1929 38.8496 68.8672 38.4536 66.5249 37.8992C64.4595 37.4096 61.7527 38.2592 58.6171 39.233C58.149 39.377 57.6738 39.5264 57.1878 39.674C53.6002 40.7648 36.9163 43.8518 35.7335 44.0696Z" fill="#263238"/>
<path d="M52.9978 44.9902L39.7695 47.9819L39.8088 48.1583L53.0371 45.1666L52.9978 44.9902Z" fill="#263238"/>
<path d="M39.3987 49.5454L39.3594 49.3654C42.252 48.7084 47.7567 47.4538 47.9122 47.4052C48.0908 47.3476 52.461 46.3684 52.6468 46.3252L52.6843 46.5052C51.1139 46.8652 48.1051 47.5366 47.9657 47.5852C47.7692 47.6446 39.7399 49.468 39.3987 49.5454Z" fill="#263238"/>
<path d="M39.2542 51.0247L39.2148 50.8447C39.297 50.8249 47.4567 48.9511 47.8373 48.8305C48.2179 48.7099 52.4326 47.7685 52.6131 47.7271L52.6524 47.9071C52.6077 47.9071 48.2429 48.8935 47.8909 49.0051C47.5032 49.1401 39.5918 50.9401 39.2542 51.0247Z" fill="#263238"/>
<path d="M39.1095 52.5044L39.0684 52.3244C39.1488 52.3064 47.187 50.438 47.7623 50.2562C48.2983 50.087 52.4076 49.1672 52.5773 49.1294L52.6167 49.3094C52.5738 49.3202 48.3429 50.2652 47.8159 50.4326C47.2352 50.6162 39.44 52.4288 39.1095 52.5044Z" fill="#263238"/>
<path d="M38.9649 53.9859L38.9238 53.8059C39.0042 53.7879 46.9209 51.9249 47.6874 51.6819C48.4021 51.4569 52.3756 50.5695 52.5454 50.5317L52.5829 50.7117C52.5418 50.7117 48.445 51.6351 47.741 51.8583C46.9674 52.1031 39.2901 53.9085 38.9649 53.9859Z" fill="#263238"/>
<path d="M38.8204 55.4637L38.7793 55.2837C38.8579 55.2657 46.6549 53.4099 47.6144 53.1057C48.5077 52.8249 52.349 51.9681 52.5116 51.9321L52.5509 52.1121C52.5098 52.1211 48.5488 53.0121 47.668 53.2821C46.7014 53.5881 39.142 55.3881 38.8204 55.4637Z" fill="#263238"/>
<path d="M38.6759 56.9448L38.6348 56.7648C38.7116 56.7468 46.3871 54.8982 47.5395 54.5328C48.6115 54.1944 52.4403 53.343 52.4779 53.334L52.5172 53.514C52.4779 53.523 48.6508 54.3726 47.5931 54.7074C46.4354 55.08 38.7527 56.925 38.6759 56.9448Z" fill="#263238"/>
<path d="M38.5313 58.4245L38.4902 58.2445C38.5653 58.2265 46.1211 56.3833 47.4647 55.9585C48.7153 55.5643 52.4084 54.7435 52.4459 54.7363L52.4834 54.9163C52.4459 54.9253 48.7546 55.7443 47.5183 56.1349C46.1693 56.5615 38.6082 58.4047 38.5313 58.4245Z" fill="#263238"/>
<path d="M38.3868 59.9041L38.3457 59.7241C38.419 59.7043 45.8497 57.8683 47.3916 57.3841C48.8102 56.9341 52.3764 56.1457 52.4121 56.1367L52.4514 56.3167C52.4139 56.3167 48.8567 57.1123 47.4488 57.5587C45.9015 58.0465 38.4618 59.8861 38.3868 59.9041Z" fill="#263238"/>
<path d="M38.2439 61.3803L38.1992 61.2003C38.2743 61.1823 45.5871 59.3517 47.3112 58.8027C48.9085 58.2969 52.3389 57.5427 52.3728 57.5337L52.4122 57.7137C52.3782 57.7137 48.955 58.4751 47.3648 58.9737C45.6353 59.5335 38.3171 61.3659 38.2439 61.3803Z" fill="#263238"/>
<path d="M38.0994 62.8633L38.0547 62.6833C38.1279 62.6653 45.3193 60.8401 47.2435 60.2317C49.0159 59.6701 52.3123 58.9447 52.3462 58.9375L52.3838 59.1175C52.3516 59.1175 49.0623 59.8483 47.2953 60.4063C45.3693 61.0201 38.1708 62.8453 38.0994 62.8633Z" fill="#263238"/>
<path d="M37.9548 64.343L37.9102 64.163C37.9816 64.145 45.0568 62.327 47.1687 61.6574C49.1197 61.04 52.2803 60.347 52.3125 60.3398L52.35 60.5198C52.3196 60.5198 49.1644 61.2164 47.2223 61.832C45.1015 62.5052 38.0263 64.325 37.9548 64.343Z" fill="#263238"/>
<path d="M37.8103 65.8226L37.7656 65.6426C37.8353 65.6246 44.7872 63.8138 47.0938 63.083C49.2217 62.408 52.2501 61.7474 52.2751 61.7402L52.3127 61.9202C52.2823 61.9202 49.2628 62.5862 47.1421 63.2576C44.8355 63.992 37.8782 65.8046 37.8103 65.8226Z" fill="#263238"/>
<path d="M37.6658 67.3024L37.6211 67.1224C37.689 67.1044 44.5194 65.299 47.0207 64.5088C49.3255 63.778 52.2182 63.148 52.2467 63.1426L52.2843 63.3226C52.2557 63.3226 49.3702 63.9562 47.0743 64.6834C44.5694 65.4772 37.7354 67.2844 37.6658 67.3024Z" fill="#263238"/>
<path d="M37.5211 68.7818L37.4746 68.6018C37.5425 68.582 44.2514 66.7838 46.9439 65.9306C49.4256 65.1458 52.1842 64.5482 52.211 64.541L52.2486 64.721C52.2218 64.721 49.4721 65.3222 46.9975 66.107C44.3104 66.9602 37.589 68.7602 37.5211 68.7818Z" fill="#263238"/>
<path d="M37.3765 70.2616L37.3301 70.0816C37.3962 70.0636 43.9836 68.2708 46.8691 67.3564C49.5294 66.514 52.1523 65.9488 52.1791 65.9434L52.2148 66.1234C52.1898 66.1234 49.5741 66.6922 46.9227 67.531C44.0337 68.4508 37.4426 70.2436 37.3765 70.2616Z" fill="#263238"/>
<path d="M37.232 71.741L37.1855 71.561C37.2499 71.543 43.7176 69.761 46.796 68.7818C49.6315 67.8818 52.1203 67.3418 52.1453 67.3418L52.1828 67.5218C52.1578 67.5218 49.6815 68.0618 46.8496 68.9618C43.773 69.9356 37.2963 71.723 37.232 71.741Z" fill="#263238"/>
<path d="M54.5964 44.5665L54.541 44.3865C55.0449 44.2245 66.9012 40.4445 68.7003 42.437L68.5681 42.5595C66.8458 40.6587 54.7179 44.5268 54.5964 44.5665Z" fill="#263238"/>
<path d="M54.5554 46.0009L54.5 45.8299C54.5429 45.8155 58.7183 44.4655 62.4328 43.7617C64.0086 43.4665 67.7749 42.8905 68.704 43.9201L68.5718 44.0425C67.9697 43.3729 65.6863 43.3351 62.465 43.9381C58.763 44.6401 54.5965 45.9865 54.5554 46.0009Z" fill="#263238"/>
<path d="M54.5165 47.4356L54.4629 47.2646C54.504 47.2502 58.7509 45.8624 62.4189 45.1784C65.5974 44.5988 68.0684 44.6834 68.7098 45.3944L68.5776 45.5168C67.9862 44.8598 65.5224 44.7968 62.4511 45.3566C58.7991 46.037 54.5594 47.4212 54.5165 47.4356Z" fill="#263238"/>
<path d="M54.479 48.8701L54.4219 48.6991C54.4665 48.6847 58.7885 47.2501 62.4029 46.5967C65.4242 46.0567 68.0792 46.1647 68.7152 46.8685L68.583 46.9909C67.9952 46.3393 65.3527 46.2457 62.4351 46.7731C58.8332 47.4247 54.5219 48.8557 54.479 48.8701Z" fill="#263238"/>
<path d="M54.4402 50.3046L54.3848 50.1246C54.4276 50.1102 58.8246 48.636 62.389 48.0042C65.3067 47.4876 68.0885 47.6316 68.721 48.3336L68.5888 48.4561C68.0778 47.8891 65.5747 47.6227 62.4194 48.1807C58.8693 48.8197 54.4938 50.2902 54.4402 50.3046Z" fill="#263238"/>
<path d="M54.4029 51.7411L54.3457 51.5701C54.3904 51.5539 58.8606 50.0401 62.375 49.4299C65.4802 48.8899 68.1656 49.1959 68.7284 49.8169L68.5944 49.9393C68.1477 49.4425 65.6857 49.0393 62.4054 49.6081C58.9053 50.2201 54.4475 51.7249 54.4029 51.7411Z" fill="#263238"/>
<path d="M54.3638 53.1757L54.3066 53.0047C54.3513 52.9885 58.8966 51.4351 62.3609 50.8447C65.6949 50.2813 68.2516 50.7601 68.734 51.3001L68.6018 51.4225C68.1962 50.9725 65.7735 50.4595 62.3895 51.0337C58.9413 51.6097 54.4085 53.1595 54.3638 53.1757Z" fill="#263238"/>
<path d="M54.3247 54.6102L54.2676 54.4392C54.314 54.423 58.9343 52.8318 62.3451 52.2648C65.7558 51.6978 68.3108 52.2918 68.7396 52.7652L68.6074 52.8876C68.2125 52.4502 65.6558 51.8976 62.3755 52.4412C58.9772 53.0064 54.3712 54.594 54.3247 54.6102Z" fill="#263238"/>
<path d="M54.2855 56.0452L54.2266 55.876C54.273 55.858 58.9684 54.229 62.3291 53.6818C65.663 53.1418 68.3144 53.7664 68.7432 54.2398L68.6074 54.3604C68.2501 53.9644 65.6916 53.3146 62.3541 53.8582C59.0166 54.4018 54.332 56.029 54.2855 56.0452Z" fill="#263238"/>
<path d="M54.2465 57.4796L54.1875 57.3104C54.2357 57.2924 59.0115 55.6256 62.315 55.0982C65.7097 54.5582 68.3611 55.2782 68.747 55.7138L68.6148 55.8362C68.329 55.5194 65.8133 54.7238 62.3401 55.2764C59.049 55.8002 54.2947 57.4634 54.2465 57.4796Z" fill="#263238"/>
<path d="M54.2074 58.9141L54.1484 58.7449C54.1967 58.7269 59.0403 57.0223 62.301 56.5165C65.8297 55.9675 68.4453 56.8459 68.7544 57.1879L68.6222 57.3103C68.4078 57.0727 65.9887 56.1241 62.3278 56.6929C59.085 57.1987 54.2556 58.8979 54.2074 58.9141Z" fill="#263238"/>
<path d="M54.1683 60.3508L54.1094 60.1798C54.1594 60.1618 59.0781 58.4212 62.2852 57.9334C66.0068 57.3664 68.5296 58.4068 68.76 58.6534L68.6278 58.7758C68.4367 58.5616 65.9478 57.55 62.312 58.1026C59.121 58.5958 54.2184 60.3328 54.1683 60.3508Z" fill="#263238"/>
<path d="M54.1369 61.7852L54.0762 61.6142C54.1262 61.598 59.1199 59.8142 62.277 59.3498C65.9718 58.8098 68.566 59.9078 68.7715 60.1364L68.6393 60.2588C68.5267 60.1328 66.1094 58.9628 62.3038 59.528C59.1574 59.9942 54.1816 61.7672 54.1369 61.7852Z" fill="#263238"/>
<path d="M54.092 63.2196L54.0312 63.0504C54.0831 63.0306 59.15 61.218 62.2499 60.7662C65.934 60.2262 68.5533 61.3764 68.7641 61.6104L68.6319 61.7328C68.4872 61.587 66.0162 60.4026 62.2749 60.9444C59.1947 61.3926 54.1367 63.2016 54.092 63.2196Z" fill="#263238"/>
<path d="M54.0531 64.6545L53.9941 64.4853C54.0442 64.4673 59.188 62.6223 62.2414 62.1849C66.1042 61.6449 68.6555 62.9499 68.777 63.0849L68.6466 63.2073C68.4447 63.0273 65.9398 61.8501 62.2664 62.3631C59.2309 62.7987 54.1049 64.6365 54.0531 64.6545Z" fill="#263238"/>
<path d="M54.0139 66.089L53.9531 65.9198C54.0049 65.9018 59.222 64.019 62.2254 63.6014C66.0774 63.074 68.6574 64.4204 68.7825 64.559L68.6502 64.6814C68.6377 64.6814 66.1882 63.2414 62.2504 63.7814C59.2649 64.1936 54.0657 66.071 54.0139 66.089Z" fill="#263238"/>
<path d="M53.9748 67.5238L53.9141 67.3546C53.9677 67.3348 59.2598 65.416 62.2113 65.0146C66.201 64.4746 68.7434 65.9992 68.7684 66.0136L68.6755 66.1684C68.6505 66.1522 66.1599 64.6672 62.2346 65.1946C59.3026 65.5906 54.0266 67.5004 53.9748 67.5238Z" fill="#263238"/>
<path d="M84.8311 78.4677C84.8311 78.4677 84.2772 78.3291 83.416 78.1473L83.4535 77.9673C84.3183 78.1473 84.8704 78.2877 84.8829 78.2895L84.8311 78.4677Z" fill="#263238"/>
<path d="M82.7738 78.0157C82.0198 77.8663 81.3927 77.3227 80.7298 76.7557C79.8937 76.0357 79.0289 75.2779 77.814 75.2419C75.4281 75.197 73.0545 75.5954 70.812 76.4173L70.7424 76.4443L70.7031 76.3795C70.4294 75.9593 70.128 75.5582 69.8008 75.1789L69.9348 75.0619C70.2525 75.4297 70.5467 75.8175 70.8156 76.2229C73.0619 75.4147 75.4345 75.0214 77.8193 75.0619C79.0968 75.0997 79.9866 75.8719 80.8477 76.6189C81.4909 77.1769 82.0984 77.6989 82.8131 77.8465L82.7738 78.0157Z" fill="#263238"/>
<path d="M69.3356 74.6572C68.893 74.1915 68.4151 73.7612 67.9062 73.3702L68.0135 73.228C68.5294 73.6237 69.0134 74.06 69.4606 74.533L69.3356 74.6572Z" fill="#263238"/>
<path d="M67.9105 73.3698C67.1913 72.8126 66.3964 72.3622 65.5503 72.0324C61.8769 70.6284 57.789 71.6832 57.3316 71.8074L57.2852 71.6274C57.7443 71.5014 61.884 70.434 65.611 71.8596C66.4728 72.1954 67.2821 72.6543 68.0141 73.2222L67.9105 73.3698Z" fill="#263238"/>
<path d="M46.926 74.3707L46.8867 74.1906C46.9868 74.1672 56.9314 71.9298 61.1801 72.0306C62.8365 72.0545 64.4782 72.3481 66.0416 72.9L65.9808 73.0692C64.4336 72.5233 62.8086 72.2345 61.1693 72.2142C56.9439 72.1152 47.0261 74.3491 46.926 74.3707Z" fill="#263238"/>
<path d="M67.5893 73.8454C67.3275 73.6733 67.052 73.5234 66.7656 73.3972L66.8389 73.2334C67.1341 73.3658 67.419 73.5204 67.6911 73.696L67.5893 73.8454Z" fill="#263238"/>
<path d="M67.0017 76.604L40.0039 77.9058L40.0124 78.0856L67.0102 76.7838L67.0017 76.604Z" fill="#263238"/>
<path d="M69.5425 76.4778L68.0684 76.5488L68.0769 76.7286L69.551 76.6575L69.5425 76.4778Z" fill="#263238"/>
<path d="M48.431 79.1459L46.8574 79.186L46.8619 79.366L48.4355 79.3258L48.431 79.1459Z" fill="#263238"/>
<path d="M45.9558 79.211L33.4746 79.5293L33.4791 79.7092L45.9604 79.3909L45.9558 79.211Z" fill="#263238"/>
<path d="M65.6404 80.1617L64.2539 80.2036L64.2593 80.3836L65.6457 80.3417L65.6404 80.1617Z" fill="#263238"/>
<path d="M63.1394 80.2352L45.5586 80.7666L45.564 80.9466L63.1448 80.4152L63.1394 80.2352Z" fill="#263238"/>
<path d="M58.3714 78.6314L54.6895 78.7583L54.6956 78.9382L58.3775 78.8113L58.3714 78.6314Z" fill="#263238"/>
<path d="M68.5125 78.2823L59.3809 78.5972L59.387 78.7771L68.5186 78.4622L68.5125 78.2823Z" fill="#263238"/>
<path d="M42.5742 80.666L41.3008 80.7012L41.3057 80.8811L42.5791 80.8459L42.5742 80.666Z" fill="#263238"/>
<path d="M40.5045 80.7231L28.6562 81.0503L28.6611 81.2302L40.5094 80.9031L40.5045 80.7231Z" fill="#263238"/>
<path d="M49.8691 41.4521C49.8691 41.4521 52.4955 37.9727 54.1571 36.5237C55.8187 35.0747 58.6542 32.7905 59.8066 32.7905C60.959 32.7905 61.2449 33.5105 61.3181 33.7679C61.3914 34.0253 62.3544 37.6829 62.3544 37.8647C62.3544 38.0465 61.3485 38.3363 61.2824 38.1185C61.2163 37.9007 60.7785 34.7831 60.5999 34.2035C60.4212 33.6239 60.4551 33.3035 59.0883 33.8777C57.7215 34.4519 53.6926 38.8061 52.8636 39.8177C52.0346 40.8293 51.2449 41.8841 51.2449 41.8841C51.2449 41.8841 50.2658 41.4521 49.8691 41.4521Z" fill="#263238"/>
<path d="M51.2635 41.9995L51.1992 41.9707C51.1903 41.9707 50.2397 41.5423 49.8681 41.5423H49.6895L49.7984 41.3983C49.8252 41.3641 52.4499 37.8955 54.0864 36.4555C55.3746 35.3269 58.5102 32.7007 59.7931 32.7007C60.9669 32.7007 61.301 33.4297 61.3903 33.7447C61.4404 33.9247 62.4355 37.6579 62.4355 37.8649C62.4355 38.0719 61.8334 38.2411 61.6726 38.2681C61.3885 38.3131 61.2242 38.2681 61.1831 38.1475C61.1545 38.0575 61.0848 37.6201 60.9633 36.8533C60.8132 35.8921 60.606 34.5745 60.4988 34.2307L60.4595 34.0975C60.4005 33.8923 60.3559 33.7375 60.2433 33.6907C60.0825 33.6133 59.7305 33.6907 59.107 33.9607C57.7813 34.5223 53.797 38.8009 52.918 39.8791C52.1015 40.8817 51.31 41.9311 51.301 41.9419L51.2635 41.9995ZM50.0361 41.3803C50.438 41.4744 50.83 41.6076 51.2063 41.7781C51.385 41.5459 52.0747 40.6369 52.7857 39.7657C53.5737 38.7973 57.6258 34.3963 59.0391 33.7951C59.7395 33.4981 60.1004 33.4225 60.3201 33.5287C60.4988 33.6169 60.5631 33.8167 60.631 34.0471C60.6435 34.0885 60.656 34.1317 60.6703 34.1767C60.7811 34.5367 60.9794 35.7967 61.1402 36.8245C61.2367 37.4347 61.3189 38.0107 61.3528 38.0845C61.4463 38.1106 61.5451 38.1106 61.6387 38.0845C61.8628 38.0595 62.0769 37.9771 62.2604 37.8451C62.2479 37.6651 61.3117 34.1155 61.217 33.7861C61.1223 33.4567 60.8079 32.8735 59.7877 32.8735C58.537 32.8735 55.1906 35.7139 54.1972 36.5851C52.7572 37.8613 50.5274 40.7395 50.0361 41.3803Z" fill="#263238"/>
<path d="M94.324 45.0003C94.24 44.8779 94.1275 44.7357 94.0489 44.7159C93.922 44.6835 93.0787 46.1271 92.8714 46.4835C92.985 46.339 93.1145 46.208 93.2574 46.0929C93.2574 46.2009 92.825 48.3393 92.4301 49.3545C92.0353 50.3697 92.1407 50.8413 92.5373 50.8053C92.934 50.7693 93.4718 48.9567 93.788 47.9415C94.0696 46.983 94.2493 45.997 94.324 45.0003Z" fill="white"/>
<path d="M92.4976 50.8967C92.4391 50.8996 92.3808 50.888 92.3279 50.8629C92.2749 50.8378 92.2289 50.7999 92.1938 50.7527C92.0152 50.5187 92.0741 50.0327 92.3475 49.3217C92.6655 48.5063 93.0085 46.9511 93.1265 46.3391L92.9389 46.5443L92.3707 47.1599L92.7923 46.4309C93.8643 44.5697 93.9894 44.6003 94.068 44.6201C94.1466 44.6399 94.2181 44.6831 94.395 44.9405L94.4129 44.9675V44.9999C94.3403 46.004 94.1606 46.9974 93.8769 47.9627L93.7965 48.2201C93.3248 49.7105 92.9335 50.8517 92.5458 50.8877L92.4976 50.8967ZM93.264 45.9971L93.2908 46.0061L93.348 46.0277V46.0925C93.348 46.2185 92.9103 48.3677 92.5136 49.3865C92.1688 50.2721 92.2742 50.5601 92.335 50.6465C92.3578 50.6747 92.3879 50.6961 92.4218 50.7084C92.4558 50.7208 92.4925 50.7237 92.5279 50.7167C92.8334 50.6879 93.3712 48.9887 93.6285 48.1733L93.7107 47.9141C93.9848 46.9753 94.1597 46.01 94.2324 45.0341C94.1847 44.9545 94.1243 44.8834 94.0537 44.8235C93.7589 45.1922 93.4948 45.5847 93.264 45.9971Z" fill="#263238"/>
<path d="M94.3007 44.2442C94.156 43.5908 93.2287 44.4242 92.8249 45.0056C92.4212 45.587 90.6309 47.5418 89.6232 48.521C88.6156 49.5002 84.8386 52.7618 84.4419 53.0516C84.0453 53.3414 83.5789 53.849 83.2913 53.885C83.0036 53.921 82.2479 53.885 81.8888 53.6672C81.5296 53.4494 81.3528 53.0516 79.6215 52.1102C77.8902 51.1688 70.4112 48.9926 69.8716 48.9602C69.3321 48.9278 68.8997 49.4678 68.1439 49.7936C67.3882 50.1194 66.1304 50.1914 65.5908 49.7198C65.0512 49.2482 64.4027 48.053 64.0435 47.1836C63.6844 46.3142 63.1073 46.1036 62.6035 45.8066C62.0996 45.5096 56.0571 42.8402 54.9405 42.4676C53.8238 42.095 52.7107 41.852 52.2069 41.816C51.8812 41.7971 51.5544 41.8213 51.2349 41.888C51.2349 41.888 51.1635 41.996 50.8776 41.78C50.5917 41.564 49.6537 41.1626 49.3661 41.7422C49.0784 42.3218 48.6514 43.6646 48.898 44.1722L49.1499 44.6798C49.1499 44.6798 48.898 47.9414 49.007 49.0646C49.1159 50.1878 49.9789 51.6386 50.6971 52.508C51.4154 53.3774 54.2955 55.0082 56.4145 55.5158C58.5335 56.0234 59.8324 55.7336 60.4077 55.3358C60.983 54.938 62.7464 52.9436 63.1788 52.472C63.6112 52.0004 63.5736 51.7106 64.9762 52.1462C66.3787 52.5818 66.8843 53.5952 67.1363 54.3566C67.3882 55.118 68.3226 58.1618 69.0784 59.141C70.0243 60.4275 71.2901 61.4401 72.7482 62.0768C74.5831 62.8742 75.8052 63.4898 77.5329 63.2738C79.2606 63.0578 80.195 62.2586 80.7346 61.3154C81.2742 60.3722 81.6279 58.4894 81.8066 57.908C81.9547 57.5224 82.219 57.1932 82.5623 56.9666C82.5623 56.9666 83.277 56.6408 83.4986 56.1332C83.7201 55.6256 85.4049 54.0668 85.4049 54.0668C85.4049 54.0668 88.1385 51.8924 89.1819 50.6954C90.2253 49.4984 93.2627 45.983 93.2627 46.0928C93.2627 46.2026 92.8303 48.3392 92.4355 49.3544C92.0406 50.3696 92.146 50.8412 92.5426 50.8052C92.9393 50.7692 93.4771 48.9566 93.7933 47.9414C94.1096 46.9262 94.4437 44.8958 94.3007 44.2442ZM63.7201 50.2202C63.6561 50.4396 63.5591 50.6478 63.4325 50.8376C63.2163 51.1634 61.7763 53.4836 60.8776 54.2072C59.9789 54.9308 58.9355 55.5482 57.8545 55.4402C56.7736 55.3322 54.006 54.281 51.9585 52.6502C49.911 51.0194 49.6198 48.8792 49.836 46.8146C50.0522 44.75 50.7722 43.3334 51.8513 43.1174C52.9305 42.9014 56.4967 43.805 58.939 45.11C61.3814 46.415 63.4718 48.0098 63.6147 48.5534C63.7577 49.097 63.7201 50.2202 63.7201 50.2202ZM80.9525 57.6542C80.7364 59.5388 80.3058 60.6278 79.6572 61.4972C79.0087 62.3666 78.2547 62.7662 76.2393 62.5772C74.224 62.3882 72.7142 61.634 71.3099 60.6206C69.9056 59.6072 69.4393 58.2644 68.8997 56.9954C68.3601 55.7264 67.4257 53.1902 67.9653 51.5954C68.5048 50.0006 70.0878 50.4002 70.0878 50.4002C70.0878 50.4002 71.4189 50.69 71.5172 50.726C71.6154 50.762 79.5768 53.1182 79.9359 53.6618C80.2951 54.2054 81.1687 55.7696 80.9525 57.6542Z" fill="#263238"/>
<path d="M76.8457 63.4067C75.5646 63.4067 74.5069 62.9441 73.124 62.3375L72.7149 62.1575C71.243 61.5155 69.9654 60.4935 69.0111 59.1947C68.3215 58.2947 67.5014 55.7639 67.1494 54.6803C67.1119 54.5615 67.078 54.4607 67.0529 54.3833C66.8153 53.6633 66.3383 52.6589 64.9536 52.2233C63.7958 51.8633 63.6815 52.0055 63.4028 52.3421C63.3563 52.3997 63.3063 52.4609 63.2456 52.5221L62.9776 52.8173C62.3236 53.5373 60.9604 55.0529 60.4601 55.3985C60.1671 55.6019 59.0058 56.2175 56.3955 55.5929C54.3069 55.0925 51.3749 53.4581 50.6281 52.5545C49.8527 51.6185 49.0201 50.1749 48.9165 49.0625C48.8129 47.9825 49.0344 45.0125 49.0576 44.6849L48.8182 44.2007C48.5466 43.6607 48.9969 42.2747 49.2863 41.6915C49.3261 41.6084 49.3843 41.5356 49.4565 41.4788C49.5287 41.422 49.6129 41.3827 49.7026 41.3639C50.1493 41.2577 50.7335 41.5439 50.9301 41.6969C51.0837 41.8121 51.1534 41.8157 51.1713 41.8139L51.182 41.7977L51.2159 41.7887C51.5441 41.7195 51.88 41.6947 52.2147 41.7149C52.7614 41.7545 53.9192 42.0299 54.9697 42.3719C56.0846 42.7319 62.1628 45.4319 62.6524 45.7127L62.8453 45.8207C63.2938 46.0673 63.803 46.3445 64.13 47.1347C64.5069 48.0473 65.1519 49.2011 65.6522 49.6385C66.1525 50.0759 67.3567 50.0219 68.1142 49.6961C68.3799 49.5732 68.6345 49.4274 68.8753 49.2605C69.2327 49.0301 69.5275 48.8339 69.8812 48.8555C70.4565 48.8933 77.9838 51.1001 79.6686 52.0199C80.8978 52.6895 81.3427 53.0819 81.6339 53.3411C81.7266 53.4293 81.8271 53.5088 81.9341 53.5787C82.2664 53.7803 83.0061 53.8199 83.2812 53.7857C83.4474 53.7641 83.7172 53.5301 83.9798 53.3051C84.1156 53.1881 84.2568 53.0657 84.3908 52.9685C84.7731 52.6877 88.5448 49.4333 89.5614 48.4451C90.5422 47.4911 92.3575 45.5201 92.7524 44.9423C93.0257 44.5427 93.7118 43.8317 94.1227 43.9109C94.1927 43.9271 94.2558 43.965 94.3032 44.0192C94.3507 44.0735 94.38 44.1414 94.3871 44.2133C94.5426 44.9171 94.1924 46.9835 93.8815 47.9573L93.8011 48.2147C93.3294 49.7051 92.9382 50.8463 92.5505 50.8823C92.4839 50.894 92.4153 50.8872 92.3523 50.8624C92.2893 50.8377 92.2343 50.796 92.1931 50.7419C92.0145 50.5079 92.0734 50.0219 92.3468 49.3109C92.6648 48.4955 93.0078 46.9385 93.1258 46.3283C92.6094 46.8809 91.0961 48.6251 90.1367 49.7321L89.2594 50.7599C88.2232 51.9497 85.4967 54.1205 85.4699 54.1421C84.8946 54.6731 83.7547 55.7855 83.5903 56.1725C83.3634 56.7125 82.6398 57.0401 82.6094 57.0527C82.2865 57.2676 82.037 57.5775 81.8948 57.9401C81.8501 58.0859 81.7912 58.3253 81.7161 58.6025C81.5142 59.4197 81.2105 60.6545 80.8013 61.3655C80.1421 62.5193 79.0736 63.1655 77.5335 63.3671C77.3053 63.3944 77.0755 63.4077 76.8457 63.4067ZM63.962 51.8399C64.3182 51.8642 64.6694 51.9381 65.0054 52.0595C66.4705 52.5131 66.9708 53.5715 67.2227 54.3275C67.2477 54.4049 67.2816 54.5075 67.3192 54.6263C67.6676 55.7063 68.4823 58.2263 69.1505 59.0849C70.0871 60.3601 71.3413 61.3635 72.7864 61.9937L73.1955 62.1737C74.8035 62.8757 75.9523 63.3833 77.5246 63.1853C79.004 63.0053 80.0259 62.3735 80.6602 61.2719C81.055 60.5825 81.357 59.3621 81.5535 58.5539C81.6232 58.2749 81.6822 58.0355 81.7322 57.8825C81.8853 57.4754 82.1632 57.128 82.5255 56.8907C82.5416 56.8817 83.2258 56.5667 83.4188 56.0987C83.6386 55.5785 85.2769 54.0665 85.3466 54.0017C85.3788 53.9765 88.0909 51.8147 89.1183 50.6375L89.9955 49.6277C93.1704 45.9647 93.1883 45.9719 93.2812 46.0079L93.3384 46.0295V46.0943C93.3384 46.2203 92.9007 48.3695 92.504 49.3883C92.1592 50.2739 92.2646 50.5619 92.3253 50.6483C92.3482 50.6765 92.3782 50.6978 92.4122 50.7102C92.4462 50.7226 92.4828 50.7254 92.5183 50.7185C92.8238 50.6897 93.3616 48.9905 93.6189 48.1751L93.7011 47.9159C94.0316 46.8809 94.3389 44.8883 94.2031 44.2673C94.1745 44.1359 94.1174 44.1107 94.0781 44.1017C93.8136 44.0531 93.2133 44.5841 92.8881 45.0593C92.479 45.6587 90.6745 47.6189 89.6721 48.5891C88.6698 49.5593 84.866 52.8461 84.4819 53.1269C84.3532 53.2205 84.2157 53.3411 84.0817 53.4563C83.7869 53.7101 83.5081 53.9495 83.2884 53.9783C83.0257 54.0107 82.2307 53.9927 81.8287 53.7479C81.7122 53.673 81.6027 53.5874 81.5017 53.4923C81.2141 53.2367 80.7763 52.8533 79.565 52.1909C77.8926 51.2783 70.4208 49.0877 69.8526 49.0499C69.5578 49.0283 69.2916 49.2047 68.9593 49.4261C68.7099 49.5994 68.4456 49.75 68.1696 49.8761C67.3638 50.2235 66.0774 50.2739 65.5218 49.7879C64.9661 49.3019 64.3247 48.1211 63.9513 47.2175C63.6493 46.4867 63.1902 46.2365 62.7453 45.9935L62.5505 45.8837C62.0664 45.6047 56.0149 42.9173 54.9036 42.5573C54.0218 42.2536 53.1129 42.0366 52.1897 41.9093C51.8809 41.8916 51.5711 41.9134 51.2677 41.9741C51.2454 41.9899 51.2197 42.0004 51.1927 42.0047C51.0512 42.0074 50.9145 41.9537 50.8121 41.8553C50.6228 41.7113 50.0975 41.4683 49.7401 41.5529C49.6761 41.5662 49.6161 41.5942 49.5646 41.6348C49.5131 41.6754 49.4717 41.7275 49.4436 41.7869C49.1577 42.3611 48.7468 43.6733 48.9754 44.1269L49.2381 44.6669V44.6903C49.2381 44.7245 48.988 47.9573 49.0952 49.0607C49.197 50.1407 50.0081 51.5393 50.7657 52.4555C51.4947 53.3393 54.3783 54.9413 56.4366 55.4345C58.9772 56.0411 60.0814 55.4597 60.3672 55.2653C60.8496 54.9323 62.2021 53.4329 62.8525 52.7129C62.9668 52.5869 63.058 52.4843 63.1223 52.4159C63.1866 52.3475 63.2277 52.2935 63.2724 52.2359C63.4653 51.9911 63.6047 51.8399 63.962 51.8399ZM77.1101 62.7173C76.8474 62.7173 76.5562 62.7029 76.2328 62.6741C74.4605 62.5139 72.9257 61.9055 71.2588 60.6941C69.9581 59.7527 69.4506 58.5341 68.9593 57.3659C68.9129 57.2543 68.8664 57.1427 68.8182 57.0329C68.1035 55.3679 67.3728 53.0729 67.8802 51.5663C68.4412 49.9139 70.0938 50.3063 70.1099 50.3063C70.2439 50.3351 71.4464 50.5961 71.5553 50.6339L71.7447 50.6915C75.3609 51.7805 79.7329 53.1719 80.0206 53.6057C80.3082 54.0395 81.2712 55.6721 81.0425 57.6521C80.8406 59.4107 80.4476 60.5735 79.7293 61.5383C79.179 62.2889 78.5573 62.7173 77.1101 62.7173ZM69.649 50.4485C69.1648 50.4485 68.3983 50.6285 68.0499 51.6311C67.5353 53.1539 68.4072 55.6271 68.9825 56.9663C69.0308 57.0779 69.0772 57.1895 69.1237 57.3011C69.6043 58.4513 70.1028 59.6411 71.3642 60.5537C73.0025 61.7399 74.5087 62.3375 76.2489 62.4941C78.2607 62.6741 78.9754 62.2655 79.5864 61.4429C80.285 60.5051 80.6673 59.3693 80.8639 57.6449C81.0836 55.7243 80.1599 54.1529 79.8723 53.7173C79.799 53.6075 78.9932 53.0765 71.6929 50.8751L71.4982 50.8175C71.4231 50.7923 70.6048 50.6105 70.0688 50.4935C69.9311 50.4623 69.7902 50.4472 69.649 50.4485ZM58.1125 55.5461C58.0236 55.5464 57.9347 55.5422 57.8462 55.5335C56.7171 55.4183 53.9495 54.3527 51.9002 52.7237C49.6044 50.8967 49.5776 48.4721 49.7437 46.8071C49.9724 44.6291 50.7317 43.2539 51.8305 43.0271C52.9293 42.8003 56.4991 43.7075 58.9772 45.0287C61.3302 46.2887 63.5368 47.9195 63.6994 48.5279C63.8441 49.0787 63.8101 50.1749 63.8101 50.2217V50.2415C63.7434 50.4699 63.6422 50.6867 63.51 50.8841C63.4868 50.9201 63.451 50.9777 63.401 51.0533C62.9936 51.6869 61.7519 53.6201 60.9372 54.2753C59.8688 55.1393 58.9593 55.5461 58.1125 55.5461ZM52.2504 43.1765C52.121 43.1746 51.9918 43.1855 51.8645 43.2089C50.864 43.4105 50.1368 44.7623 49.9224 46.8269C49.6526 49.4045 50.3154 51.2333 52.011 52.5869C53.9567 54.1349 56.7314 55.2455 57.8641 55.3589C58.7449 55.4489 59.6847 55.0637 60.8228 54.1457C61.6143 53.5085 62.8436 51.5951 63.2491 50.9651L63.3581 50.7959C63.4774 50.6175 63.5695 50.4221 63.6315 50.2163C63.6315 50.1029 63.6583 49.0823 63.5261 48.5855C63.3938 48.0887 61.3428 46.5047 58.8932 45.1979C56.6885 44.0171 53.6136 43.1765 52.2504 43.1765Z" fill="#263238"/>
<path d="M66.3963 50.9058C66.2395 50.9066 66.0831 50.8897 65.93 50.8554C64.6472 50.5692 64.1523 49.1724 63.8253 48.2472L63.7788 48.1158C63.4733 47.2608 63.1678 47.0358 63.166 47.0358L63.2643 46.8882C63.2786 46.8972 63.6216 47.1312 63.9468 48.0546L63.9932 48.186C64.3077 49.0734 64.7829 50.4144 65.9693 50.6808C67.2057 50.9562 68.4706 49.8762 68.4813 49.8654L68.5993 50.0022C68.551 50.04 67.5344 50.9058 66.3963 50.9058Z" fill="white"/>
<path d="M82.5065 55.0385C82.084 55.0218 81.6701 54.9131 81.2933 54.7199C81.2521 54.684 81.2187 54.6399 81.1951 54.5903C81.0289 54.3059 80.5197 53.4455 78.3918 52.4789C75.8744 51.3359 70.1177 49.8887 70.0605 49.8743L70.1034 49.6943C70.1606 49.7087 75.9333 51.1595 78.465 52.3097C80.643 53.2997 81.1754 54.1961 81.3487 54.4913C81.3684 54.5237 81.3898 54.5597 81.3969 54.5687C81.4702 54.6155 82.519 55.0799 83.0157 54.7109L83.1229 54.8567C82.9414 54.9809 82.7258 55.0445 82.5065 55.0385Z" fill="white"/>
<path d="M62.872 46.7045C62.872 46.7045 62.1574 46.1123 59.1861 44.7605C57.2357 43.8951 55.2146 43.2013 53.1454 42.6869C52.9346 42.6311 52.7684 42.5879 52.6505 42.5537C52.0132 42.3951 51.3445 42.4207 50.7209 42.6275C50.176 42.7823 49.5131 42.1973 49.4863 42.1721L49.6042 42.0371C49.6042 42.0371 50.2224 42.5771 50.6762 42.4529C51.3314 42.2374 52.0337 42.2125 52.7023 42.3809C52.8202 42.4151 52.9864 42.4583 53.1937 42.5123C55.2746 43.0288 57.3071 43.7262 59.2683 44.5967C62.2681 45.9629 62.9667 46.5425 62.9953 46.5677L62.872 46.7045Z" fill="white"/>
<path d="M50.9621 52.3224C49.3291 50.895 49.4542 48.4668 49.456 48.4434L49.6346 48.4542C49.6346 48.4776 49.5131 50.8194 51.0783 52.1856L50.9621 52.3224Z" fill="white"/>
</g>
</svg>
